<ttFont>
          <CharString index="0">
            47 -11 -48 42 -85 hhcurveto
            -122 -69 -85 -129 -160 108 -105 172 -14 callsubr
            return
          </CharString>
          <CharString index="1">
            -73 -37 -38 -58 -51 19 -54 15 -25 hvcurveto
            112 hlineto
            -5 25 -3 28 16 vvcurveto
            37 11 8 23 vhcurveto
            return
          </CharString>
          <CharString index="2">
            -102 callgsubr
            -113 77 -84 121 45 35 15 23 26 hvcurveto
            return
          </CharString>
          <CharString index="3">
            -11 21 -6 16 25 vvcurveto
            32 16 27 33 37 24 -24 -56 -82 -59 -47 -102 vhcurveto
            -112 -117 hlineto
            221 -234 323 callgsubr
            263 callsubr
            return
          </CharString>
          <CharString index="4">
            128 callgsubr
            -99 callgsubr
            return
          </CharString>
          <CharString index="5">
            246 callgsubr
            -56 -38 -26 -61 -36 -33 8 17 -32 hvcurveto
            -101 callsubr
            return
          </CharString>
          <CharString index="6">
            382 callgsubr
            47 -15 43 -43 28 hvcurveto
            return
          </CharString>
          <CharString index="7">
            -189 -88 -96 -136 -140 80 -101 144 -92 callsubr
            return
          </CharString>
          <CharString index="8">
            rmoveto
            -176 hlineto
            70 13 42 31 43 hhcurveto
            56 18 -40 -49 4 hvcurveto
            105 -161 rmoveto
            -24 -32 -42 -19 -60 hhcurveto
            -68 -53 31 57 -20 hvcurveto
            298 hlineto
            3 21 5 36 22 vvcurveto
            162 -89 75 -131 -126 -108 -90 -168 -147 92 -112 172 51 71 10 24 37 vhcurveto
            endchar
          </CharString>
          <CharString index="9">
            -89 callsubr
            -94 callsubr
            return
          </CharString>
          <CharString index="10">
            469 callsubr
            559 100 return
          </CharString>
          <CharString index="11">
            117 vlineto
            -1 -6 -6 0 -5 hhcurveto
            -73 -32 46 76 return
          </CharString>
          <CharString index="12">
            -112 100 -84 callsubr
            return
          </CharString>
          <CharString index="13">
            -187 251 rlineto
            -4 34 42 -4 49 hhcurveto
            return
          </CharString>
          <CharString index="14">
            rmoveto
            -37 vlineto
            -43 -23 -28 -42 -40 -19 18 33 33 27 24 50 vhcurveto
            -190 143 rmoveto
            25 38 55 21 59 hhcurveto
            65 20 -26 -38 hvcurveto
            -35 -64 vlineto
            -144 -68 -60 -94 -81 55 -66 102 74 36 33 32 16 hvcurveto
            return
          </CharString>
          <CharString index="15">
            -90 callsubr
            90 hvcurveto
            return
          </CharString>
          <CharString index="16">
            -198 vlineto
            -101 callgsubr
            return
          </CharString>
          <CharString index="17">
            15 13 1 1 12 hvcurveto
            -84 callgsubr
            return
          </CharString>
          <CharString index="18">
            56 callsubr
            -71 -98 hlineto
            -66 callgsubr
            return
          </CharString>
          <CharString index="19">
            rmoveto
            -67 -238 rlineto
            -51 -180 -17 -78 0 vvcurveto
            0 -9 78 -44 180 vhcurveto
            -62 248 rlineto
            -162 hlineto
            181 -674 rlineto
            172 hlineto
            62 213 rlineto
            51 172 3 41 0 vvcurveto
            0 5 -40 48 -173 vhcurveto
            59 -213 rlineto
            172 hlineto
            180 674 rlineto
            -157 hlineto
            -62 -247 rlineto
            -43 -170 -13 -89 0 vvcurveto
            0 -19 89 -47 169 vhcurveto
            -66 238 rlineto
            return
          </CharString>
          <CharString index="20">
            hhcurveto
            -111 -71 -68 -88 -84 62 -56 78 15 20 3 5 16 hvcurveto
            -68 callgsubr
            return
          </CharString>
          <CharString index="21">
            150 hlineto
            44 166 rlineto
            32 121 10 67 0 vvcurveto
            0 9 -67 32 -121 vhcurveto
            44 -166 rlineto
            150 hlineto
            162 507 rlineto
            -144 hlineto
            -47 -167 rlineto
            -40 -143 -7 -59 0 vvcurveto
            0 -7 59 -41 143 vhcurveto
            -48 167 rlineto
            -126 hlineto
            -49 -167 rlineto
            -42 -142 -7 -60 0 vvcurveto
            0 -6 60 -37 142 vhcurveto
            -44 167 rlineto
            -151 hlineto
            return
          </CharString>
          <CharString index="22">
            -56 -34 -37 -46 -56 -26 43 44 return
          </CharString>
          <CharString index="23">
            -78 callsubr
            112 return
          </CharString>
          <CharString index="24">
            rmoveto
            -59 -34 44 85 80 36 48 58 59 40 -38 -98 -63 -34 -58 -66 hvcurveto
            100 374 rmoveto
            -67 vlineto
            45 -27 -43 27 -63 hhcurveto
            -129 -83 -107 -142 -174 104 -72 101 63 47 22 46 30 hvcurveto
            -34 vlineto
            -79 -37 -37 -89 -64 -63 20 36 -45 vhcurveto
            -149 vlineto
            -28 59 66 -10 62 hhcurveto
            136 120 73 172 hvcurveto
            458 vlineto
            endchar
          </CharString>
          <CharString index="25">
            376 -73 callsubr
            return
          </CharString>
          <CharString index="26">
            rmoveto
            161 87 116 148 144 -84 115 -164 -154 -95 -115 -153 -142 84 -113 165 hvcurveto
            -1 408 rmoveto
            73 24 -68 -81 -81 -27 -65 -68 -68 -30 67 81 81 29 66 67 hvcurveto
            return
          </CharString>
          <CharString index="27">
            -70 -11 -44 -30 -55 hhcurveto
            -58 -40 36 65 63 45 40 71 hvcurveto
            return
          </CharString>
          <CharString index="28">
            rmoveto
            156 177 359 callsubr
            -79 -96 -79 96 359 callsubr
            156 -177 rlineto
            return
          </CharString>
          <CharString index="29">
            -66 callsubr
            100 return
          </CharString>
          <CharString index="30">
            139 109 141 return
          </CharString>
          <CharString index="31">
            55 41 33 50 22 18 -4 -5 19 return
          </CharString>
          <CharString index="32">
            vhcurveto
            -72 callsubr
            return
          </CharString>
          <CharString index="33">
            559 100 return
          </CharString>
          <CharString index="34">
            rmoveto
            -88 callgsubr
            190 163 vlineto
            return
          </CharString>
          <CharString index="35">
            -31 callsubr
            -19 -26 3 -25 hhcurveto
            return
          </CharString>
          <CharString index="36">
            14 25 7 31 35 vvcurveto
            114 return
          </CharString>
          <CharString index="37">
            -85 callsubr
            -105 callgsubr
            return
          </CharString>
          <CharString index="38">
            80 callgsubr
            -135 -92 callgsubr
          </CharString>
          <CharString index="39">
            rmoveto
            -60 -25 -35 -29 -60 hhcurveto
            -11 -11 1 3 -12 hvcurveto
            -116 vlineto
            -4 20 11 -1 25 hhcurveto
            106 81 68 145 54 hvcurveto
            183 492 rlineto
            -150 hlineto
            -50 -158 rlineto
            -43 -137 -11 -40 0 vvcurveto
            0 -6 40 -48 137 vhcurveto
            -55 158 rlineto
            -159 hlineto
            endchar
          </CharString>
          <CharString index="40">
            201 callsubr
            -243 114 callsubr
          </CharString>
          <CharString index="41">
            -559 141 559 return
          </CharString>
          <CharString index="42">
            -45 -35 -16 -23 -26 hvcurveto
            return
          </CharString>
          <CharString index="43">
            19 -43 vhcurveto
            -5 callsubr
            return
          </CharString>
          <CharString index="44">
            hhcurveto
            -75 -59 -28 -69 -20 hvcurveto
            return
          </CharString>
          <CharString index="45">
            -44 callsubr
            46 return
          </CharString>
          <CharString index="46">
            -51 -18 -20 -46 vhcurveto
            -69 -110 hlineto
            -163 65 125 -104 178 hhcurveto
            return
          </CharString>
          <CharString index="47">
            -95 callgsubr
            122 return
          </CharString>
          <CharString index="48">
            82 -129 -56 callsubr
            -132 169 rlineto
            73 28 40 56 70 vvcurveto
            88 -68 51 -92 -37 -39 -9 -14 -27 vhcurveto
            -99 vlineto
            147 callsubr
            return
          </CharString>
          <CharString index="49">
            -70 -11 -44 -30 -55 hhcurveto
            -50 -29 26 43 46 41 36 55 24 hvcurveto
            -8 34 38 -4 38 hhcurveto
            return
          </CharString>
          <CharString index="50">
            -113 77 -84 121 45 35 15 23 26 vhcurveto
            return
          </CharString>
          <CharString index="51">
            rlineto
            170 hlineto
            return
          </CharString>
          <CharString index="52">
            -276 hlineto
            -85 callsubr
            return
          </CharString>
          <CharString index="53">
            33 callgsubr
            118 hstem
            70 141 vstem
            return
          </CharString>
          <CharString index="54">
            vlineto
            -81 callgsubr
            return
          </CharString>
          <CharString index="55">
            rmoveto
            120 -176 rlineto
            168 hlineto
            -145 176 rlineto
            return
          </CharString>
          <CharString index="56">
            -57 callsubr
            -50 callgsubr
            return
          </CharString>
          <CharString index="57">
            3 11 20 2 18 hhcurveto
            42 36 -27 -57 -89 -72 -56 -107 -65 -48 24 40 hvcurveto
            return
          </CharString>
          <CharString index="58">
            rmoveto
            -49 -21 -18 -37 -35 -24 17 49 vhcurveto
            218 117 vlineto
            return
          </CharString>
          <CharString index="59">
            rmoveto
            71 callgsubr
            145 callsubr
            hvcurveto
            -268 hmoveto
            -69 callgsubr
            145 callsubr
            hvcurveto
            return
          </CharString>
          <CharString index="60">
            -61 callgsubr
            126 return
          </CharString>
          <CharString index="61">
            -57 -5 -5 0 1 -6 vhcurveto
            return
          </CharString>
          <CharString index="62">
            471 callgsubr
            vlineto
            endchar
          </CharString>
          <CharString index="63">
            284 vlineto
            56 34 37 return
          </CharString>
          <CharString index="64">
            hhcurveto
            49 39 16 25 29 hvcurveto
            164 callgsubr
            return
          </CharString>
          <CharString index="65">
            79 -48 -62 43 -90 hhcurveto
            -35 -33 -4 -5 -15 hvcurveto
            -105 vlineto
            -28 callsubr
            62 57 -27 -28 54 hvcurveto
            return
          </CharString>
          <CharString index="66">
            rmoveto
            79 -96 rlineto
            139 hlineto
            -156 177 rlineto
            -124 hlineto
            -156 -177 rlineto
            139 hlineto
            return
          </CharString>
          <CharString index="67">
            182 -184 rlineto
            -15 -25 -27 -8 -31 hhcurveto
            -55 -44 28 64 hvcurveto
            return
          </CharString>
          <CharString index="68">
            111 71 -44 callgsubr
            return
          </CharString>
          <CharString index="69">
            -76 callgsubr
            -48 -45 return
          </CharString>
          <CharString index="70">
            rmoveto
            121 457 callgsubr
            -146 hlineto
            return
          </CharString>
          <CharString index="71">
            -98 callgsubr
            72 27 27 39 37 21 -64 callgsubr
            return
          </CharString>
          <CharString index="72">
            41 hlineto
            79 16 -33 -37 -64 -40 -20 -48 -38 -42 8 26 -49 379 callsubr
            -15 43 49 -7 44 hhcurveto
            150 67 79 101 hvcurveto
            7 vlineto
            return
          </CharString>
          <CharString index="73">
            11 15 35 11 22 hhcurveto
            36 21 -17 -25 -40 -42 -18 -47 -82 -51 return
          </CharString>
          <CharString index="74">
            84 vlineto
            -19 33 41 -12 45 hhcurveto
            113 75 68 101 21 -2 20 -6 17 hvcurveto
            return
          </CharString>
          <CharString index="75">
            -52 callgsubr
            -70 -87 -32 -171 -44 vhcurveto
            return
          </CharString>
          <CharString index="76">
            122 vlineto
            5 return
          </CharString>
          <CharString index="77">
            -31 vvcurveto
            -58 53 -53 53 -28 vhcurveto
            80 49 rlineto
            -21 21 -21 23 25 vvcurveto
            13 5 15 13 11 vhcurveto
            return
          </CharString>
          <CharString index="78">
            rmoveto
            145 callsubr
            -69 callgsubr
            vhcurveto
            268 hmoveto
            145 callsubr
            71 callgsubr
            vhcurveto
            return
          </CharString>
          <CharString index="79">
            30 callgsubr
            464 callgsubr
            -47 callgsubr
            return
          </CharString>
          <CharString index="80">
            232 122 -232 153 260 123 -415 -674 419 123 return
          </CharString>
          <CharString index="81">
            rmoveto
            106 hlineto
            116 211 rlineto
            -151 hlineto
            return
          </CharString>
          <CharString index="82">
            hstemhm
            34 140 124 143 return
          </CharString>
          <CharString index="83">
            75 31 -6 -38 -27 -31 -23 -66 -82 -70 25 40 -65 return
          </CharString>
          <CharString index="84">
            101 -77 55 -116 -121 -69 -80 -91 -58 22 -43 35 -31 vhcurveto
            return
          </CharString>
          <CharString index="85">
            -62 143 325 vlineto
            131 -71 60 -143 -79 -64 -17 -17 -30 vhcurveto
            endchar
          </CharString>
          <CharString index="86">
            72 27 27 39 37 return
          </CharString>
          <CharString index="87">
            0 -24 callgsubr
            return
          </CharString>
          <CharString index="88">
            -62 -10 116 159 128 157 116 hstemhm
            35 146 -136 147 161 146 -135 146 hintmask 11110010
            271 106 rmoveto
            -67 -23 38 37 41 26 43 64 61 32 -36 -46 -38 -27 -39 -66 hvcurveto
            hintmask 11101100
            -1 444 rmoveto
            70 13 -39 -38 -54 -38 -26 -42 -44 -37 27 53 38 20 39 58 hvcurveto
            147 -217 rmoveto
            50 29 32 48 61 vvcurveto
            136 -101 59 -128 -126 -99 -69 -126 -63 33 -48 52 -30 vhcurveto
            hintmask 11110010
            -57 -28 -38 -50 -75 vvcurveto
            -115 91 -72 144 142 98 77 115 vhcurveto
            hintmask 11101100
            79 -37 46 -56 26 vhcurveto
            endchar
          </CharString>
          <CharString index="89">
            127 vlineto
            -20 -30 -62 -21 -55 275 callsubr
            396 callsubr
            return
          </CharString>
          <CharString index="90">
            hlineto
            317 callgsubr
            -67 53 -38 90 -2 vhcurveto
            return
          </CharString>
          <CharString index="91">
            112 vlineto
            endchar
          </CharString>
          <CharString index="92">
            -46 36 -36 46 46 36 36 46 46 -36 36 -46 return
          </CharString>
          <CharString index="93">
            279 callsubr
            -36 callsubr
            return
          </CharString>
          <CharString index="94">
            rmoveto
            118 107 -118 120 -146 -120 -73 -107 73 -232 hlineto
            -112 57 -61 116 28 44 4 12 28 402 callsubr
            -14 -22 -26 -6 -23 hhcurveto
            -31 -25 17 38 hvcurveto
            return
          </CharString>
          <CharString index="95">
            vvcurveto
            -63 38 -54 99 46 34 10 15 29 vhcurveto
            101 vlineto
            -16 -23 -28 -14 -36 hhcurveto
            -27 -16 12 22 return
          </CharString>
          <CharString index="96">
            189 -189 289 -268 -21 return
          </CharString>
          <CharString index="97">
            671 rmoveto
            return
          </CharString>
          <CharString index="98">
            50 67 -9 -46 80 hvcurveto
            154 vlineto
            33 -65 -70 9 -62 hhcurveto
            -212 -161 -133 -215 -216 151 -130 213 hvcurveto
            return
          </CharString>
          <CharString index="99">
            rmoveto
            -17 callgsubr
            -112 hlineto
            -58 -36 -31 -50 -50 -36 31 58 vhcurveto
            return
          </CharString>
          <CharString index="100">
            1 -8 -9 1 -8 -63 callsubr
            return
          </CharString>
          <CharString index="101">
            373 rmoveto
            -158 186 158 hlineto
            return
          </CharString>
          <CharString index="102">
            36 -80 rlineto
            119 return
          </CharString>
          <CharString index="103">
            -67 callgsubr
            143 117 hstem
            70 141 vstem
            return
          </CharString>
          <CharString index="104">
            142 -2 callgsubr
            return
          </CharString>
          <CharString index="105">
            559 112 return
          </CharString>
          <CharString index="106">
            -73 -37 -38 -58 -51 19 -34 15 -25 hvcurveto
            112 hlineto
            -5 25 -3 18 16 vvcurveto
            37 11 8 23 vhcurveto
            95 return
          </CharString>
          <CharString index="107">
            hhcurveto
            -65 callsubr
            return
          </CharString>
          <CharString index="108">
            3 10 12 2 13 hhcurveto
            21 27 -3 -7 21 46 callgsubr
            -22 -33 3 -26 hhcurveto
            return
          </CharString>
          <CharString index="109">
            rmoveto
            -145 hlineto
            -1 -507 rlineto
            146 253 hlineto
            77 42 49 63 17 18 -2 -9 20 vhcurveto
            138 vlineto
            4 -14 -11 0 -13 hhcurveto
            -59 -45 -40 -57 -18 hvcurveto
            endchar
          </CharString>
          <CharString index="110">
            -2 -6 -6 -1 -5 hhcurveto
            -30 -14 17 22 27 26 17 34 51 30 -41 -60 -107 -105 -31 -94 -97 -86 42 95 -30 hvcurveto
            9 2 rlineto
            71 17 26 46 80 vvcurveto
            114 return
          </CharString>
          <CharString index="111">
            rmoveto
            3 callsubr
            313 112 -657 -112 204 -86 vlineto
            441 callsubr
            88 -89 144 -24 -192 -156 rcurveline
            209 hlineto
            262 211 rlineto
            84 68 49 63 86 vvcurveto
            105 -71 82 -148 420 callgsubr
            vhcurveto
            endchar
          </CharString>
          <CharString index="112">
            15 hlineto
            -30 -33 -17 -45 -56 vvcurveto
            -144 99 -82 125 15 13 1 1 12 402 callsubr
            -1 -6 -6 0 -5 hhcurveto
            -63 -42 42 69 79 49 47 104 hvcurveto
            return
          </CharString>
          <CharString index="113">
            -69 -45 -30 -68 -70 12 callsubr
            82 66 55 113 23 21 -2 -5 19 hvcurveto
            -91 -43 rlineto
            -41 -19 -19 -26 -31 vvcurveto
            -51 57 -56 26 -20 vhcurveto
            87 41 rlineto
            -26 36 -13 27 13 vvcurveto
            11 7 6 11 5 vhcurveto
            91 43 rlineto
            8 -17 5 -20 -23 75 callsubr
            return
          </CharString>
          <CharString index="114">
            rcurveline
            -103 callgsubr
            return
          </CharString>
          <CharString index="115">
            rmoveto
            -88 callgsubr
            180 163 vlineto
            504 hmoveto
            112 -904 -112 95 -174 vlineto
            8 callgsubr
            298 22 callsubr
            97 vlineto
            endchar
          </CharString>
          <CharString index="116">
            -92 -99 -44 -110 -120 112 -31 97 hvcurveto
            return
          </CharString>
          <CharString index="117">
            167 117 204 120 callgsubr
            39 143 -118 143 211 140 hintmask 11110110
            418 -1 rmoveto
            -17 -3 -15 -6 -14 vhcurveto
            -128 109 41 1 71 16 25 36 rlinecurve
            -42 -201 rmoveto
            -12 -18 -24 -7 -28 hhcurveto
            -59 -40 30 55 24 9 21 14 15 hvcurveto
            -260 631 rmoveto
            -112 445 -64 -113 vlineto
            hintmask 11111010
            -168 -95 -93 -124 -75 36 -64 60 -39 hvcurveto
            hintmask 11110110
            -44 -27 -27 -46 -64 vvcurveto
            return
          </CharString>
          <CharString index="118">
            rmoveto
            76 hlineto
            59 38 -34 -58 -64 -30 -34 -70 hvcurveto
            -73 hlineto
            193 -359 rmoveto
            184 hlineto
            -171 259 rlineto
            72 32 51 64 103 vvcurveto
            127 -98 89 -152 vhcurveto
            -233 -674 154 234 47 hlineto
            endchar
          </CharString>
          <CharString index="119">
            vvcurveto
            -202 196 -82 175 22 22 1 3 21 vhcurveto
            104 vlineto
            -3 -16 -23 0 -18 hhcurveto
            -160 -78 86 85 return
          </CharString>
          <CharString index="120">
            102 41 -27 -52 -44 -36 -20 -63 77 callgsubr
            109 94 64 94 40 -17 40 -40 25 hvcurveto
            return
          </CharString>
          <CharString index="121">
            -21 -1 -26 -3 -15 -4 rrcurveto
            -111 vlineto
            return
          </CharString>
          <CharString index="122">
            407 -10 callsubr
            -437 -112 437 hlineto
            -45 -355 rmoveto
            -15 -23 -25 -5 -29 -77 callgsubr
            255 -36 rmoveto
            -13 -25 -13 -20 -12 -16 -166 137 7 callsubr
            -98 67 -79 84 -26 hvcurveto
            -162 -154 rlineto
            194 hlineto
            314 302 rlineto
            return
          </CharString>
          <CharString index="123">
            -112 192 vlineto
            -38 callsubr
            -35 178 callgsubr
            15 -129 64 -83 84 -35 -185 -179 rcurveline
            197 hlineto
            return
          </CharString>
          <CharString index="124">
            -111 -88 -29 -65 -57 -50 30 89 callsubr
            return
          </CharString>
          <CharString index="125">
            -21 3 -23 8 -23 vhcurveto
            134 hlineto
            return
          </CharString>
          <CharString index="126">
            151 callsubr
            vhcurveto
            -67 143 65 vlineto
            return
          </CharString>
          <CharString index="127">
            -247 25 callgsubr
            return
          </CharString>
          <CharString index="128">
            461 callgsubr
            114 vlineto
            -32 -21 -23 -35 -53 vvcurveto
            -98 79 -61 132 return
          </CharString>
          <CharString index="129">
            389 callsubr
            -100 callgsubr
            return
          </CharString>
          <CharString index="130">
            hlineto
            -76 callgsubr
            return
          </CharString>
          <CharString index="131">
            490 rmoveto
            10 -23 -26 6 -30 103 callsubr
            24 22 36 51 30 -41 -60 return
          </CharString>
          <CharString index="132">
            -102 callsubr
            141 105 callgsubr
            return
          </CharString>
          <CharString index="133">
            154 callsubr
            hintmask 11011100
            -38 callgsubr
            hintmask 11101100
            149 callsubr
            endchar
          </CharString>
          <CharString index="134">
            242 -189 105 122 107 68 112 43 456 callgsubr
            -126 143 123 140 -112 139 return
          </CharString>
          <CharString index="135">
            rmoveto
            -12 33 23 -4 23 hhcurveto
            116 59 73 104 hvcurveto
            528 -145 -526 vlineto
            -49 -22 -18 -30 -17 -20 6 9 -20 vhcurveto
            return
          </CharString>
          <CharString index="136">
            -3 callgsubr
            hlineto
            -143 90 -66 121 return
          </CharString>
          <CharString index="137">
            -19 -20 -11 -25 -29 vvcurveto
            -67 53 -38 90 -2 vhcurveto
            return
          </CharString>
          <CharString index="138">
            113 callgsubr
            hlineto
            endchar
          </CharString>
          <CharString index="139">
            83 21 68 callsubr
            return
          </CharString>
          <CharString index="140">
            -30 callgsubr
            214 callgsubr
            return
          </CharString>
          <CharString index="141">
            -360 31 callsubr
          </CharString>
          <CharString index="142">
            490 rmoveto
            21 34 56 22 49 hhcurveto
            53 37 -20 -49 -51 -56 -21 -65 hvcurveto
            -35 -120 35 hlineto
            hintmask 11101000
            105 30 -34 -39 -41 -36 -33 -68 -66 -52 18 26 -47 hvcurveto
            -140 vlineto
            -22 45 70 -12 62 hhcurveto
            155 86 76 109 80 -42 51 -72 17 hvcurveto
            hintmask 11110000
            65 27 36 54 72 vvcurveto
            106 -87 76 -143 -56 -57 -19 -18 -36 vhcurveto
            endchar
          </CharString>
          <CharString index="143">
            43 callsubr
            hvcurveto
            return
          </CharString>
          <CharString index="144">
            86 -50 67 -150 -70 -46 2 35 return
          </CharString>
          <CharString index="145">
            142 163 142 return
          </CharString>
          <CharString index="146">
            346 rmoveto
            -53 -32 40 52 60 34 35 52 45 42 -35 -107 9 hvcurveto
            -29 -24 -27 -16 -46 hhcurveto
            -187 -335 rmoveto
            -10 27 46 -9 46 hhcurveto
            179 133 106 250 194 -93 121 -157 -145 -83 -102 -126 -127 81 -80 116 61 41 15 28 28 hvcurveto
            -102 -17 -56 -45 -104 hhcurveto
            -35 -43 13 12 -25 hvcurveto
            endchar
          </CharString>
          <CharString index="147">
            rmoveto
            163 -183 451 callgsubr
            190 rmoveto
            172 112 -709 -112 90 -184 hlineto
            -143 74 -61 114 49 39 16 25 29 vhcurveto
            -212 142 295 106 callgsubr
          </CharString>
          <CharString index="148">
            140 44 87 70 104 vvcurveto
            return
          </CharString>
          <CharString index="149">
            rmoveto
            108 hlineto
            131 177 rlineto
            -145 hlineto
            -281 -177 rmoveto
            108 457 callgsubr
            -133 hlineto
            return
          </CharString>
          <CharString index="150">
            vvcurveto
            12 callgsubr
            return
          </CharString>
          <CharString index="151">
            40 35 29 70 46 27 -20 -24 -9 0 -22 -10 -19 vhcurveto
            138 hlineto
            9 20 0 24 14 vvcurveto
            86 -83 65 -122 return
          </CharString>
          <CharString index="152">
            -427 800 rmoveto
            171 callgsubr
            72 -105 rlineto
            151 hlineto
            -110 169 284 callsubr
            return
          </CharString>
          <CharString index="153">
            -36 -33 8 17 -32 return
          </CharString>
          <CharString index="154">
            rmoveto
            -671 142 -62 callgsubr
          </CharString>
          <CharString index="155">
            rmoveto
            -483 -124 296 hlineto
            -302 -437 rlineto
            -113 501 124 -316 vlineto
            304 441 rlineto
            return
          </CharString>
          <CharString index="156">
            461 callgsubr
            112 vlineto
            -30 -19 -23 -32 -55 vvcurveto
            return
          </CharString>
          <CharString index="157">
            -63 0 123 153 122 153 123 return
          </CharString>
          <CharString index="158">
            139 120 140 -84 140 return
          </CharString>
          <CharString index="159">
            143 213 142 return
          </CharString>
          <CharString index="160">
            -13 -22 -15 -21 -17 -19 84 callsubr
            return
          </CharString>
          <CharString index="161">
            41 callsubr
            -31 callgsubr
            return
          </CharString>
          <CharString index="162">
            -203 260 11 2 rlineto
            84 20 48 62 91 vvcurveto
            124 286 return
          </CharString>
          <CharString index="163">
            -45 -27 -32 -65 vhcurveto
            return
          </CharString>
          <CharString index="164">
            62 callsubr
            vlineto
            return
          </CharString>
          <CharString index="165">
            rmoveto
            14 -35 -48 7 -47 hhcurveto
            -82 callgsubr
            endchar
          </CharString>
          <CharString index="166">
            262 105 rmoveto
            -359 vlineto
            -56 16 -46 15 -39 14 rrcurveto
            42 33 35 49 64 vvcurveto
            return
          </CharString>
          <CharString index="167">
            -20 callgsubr
            64 return
          </CharString>
          <CharString index="168">
            -73 callgsubr
            hintmask 0101111110000000
            78 49 41 73 vhcurveto
            16 hlineto
            24 29 -10 -28 11 hvcurveto
            187 callsubr
            hintmask 1010111110000000
            2 callgsubr
          </CharString>
          <CharString index="169">
            198 -256 -56 callsubr
            55 callsubr
            return
          </CharString>
          <CharString index="170">
            rmoveto
            -145 176 rlineto
            206 callgsubr
            return
          </CharString>
          <CharString index="171">
            -109 vlineto
            -25 callgsubr
            return
          </CharString>
          <CharString index="172">
            vlineto
            -66 callgsubr
            return
          </CharString>
          <CharString index="173">
            rmoveto
            131 158 -131 vlineto
            -432 243 rmoveto
            -112 135 -138 vlineto
            -93 callgsubr
            158 -32 hlineto
            -369 -313 rlineto
            198 hlineto
            171 148 rlineto
            -108 92 callsubr
          </CharString>
          <CharString index="174">
            -91 -3 103 -100 100 108 90 99 119 return
          </CharString>
          <CharString index="175">
            -21 138 124 300 112 0 -20 return
          </CharString>
          <CharString index="176">
            vstem
            170 559 rmoveto
            117 -187 hlineto
            -49 -21 -18 -37 -35 -24 17 49 vhcurveto
            256 188 rmoveto
            88 112 -554 117 callgsubr
            186 -30 rmoveto
            -474 -381 rlineto
            207 hlineto
            306 245 rlineto
            return
          </CharString>
          <CharString index="177">
            146 268 hlineto
            112 63 14 31 46 33 -34 -60 vhcurveto
            -300 146 323 vlineto
            133 -74 56 -93 -80 -48 -35 -56 -24 vhcurveto
            endchar
          </CharString>
          <CharString index="178">
            440 callsubr
            111 -177 rlineto
            121 hlineto
            return
          </CharString>
          <CharString index="179">
            231 callgsubr
            39 -221 rmoveto
            -81 -51 -65 -53 -65 hhcurveto
            -57 -36 24 45 342 callgsubr
            hvcurveto
            49 callsubr
            -74 56 -66 77 -13 vhcurveto
            -150 -145 rlineto
            184 hlineto
            309 300 rlineto
            return
          </CharString>
          <CharString index="180">
            190 -169 -21 return
          </CharString>
          <CharString index="181">
            54 -136 90 -88 132 -25 -192 -156 rcurveline
            209 hlineto
            122 100 89 64 61 56 rrcurveto
            -111 -92 callgsubr
          </CharString>
          <CharString index="182">
            vvcurveto
            -22 -3 -27 -5 -16 vhcurveto
            126 hlineto
            6 21 3 33 26 vvcurveto
            139 -104 90 -176 vhcurveto
            return
          </CharString>
          <CharString index="183">
            vlineto
            -21 -8 -21 -32 -25 -20 11 0 vhcurveto
            -100 vlineto
            -11 32 20 -2 29 hhcurveto
            72 60 37 92 hvcurveto
            return
          </CharString>
          <CharString index="184">
            -116 123 -57 131 185 138 105 168 vhcurveto
            return
          </CharString>
          <CharString index="185">
            vlineto
            -76 callgsubr
            -47 -43 -39 -106 -17 vhcurveto
            return
          </CharString>
          <CharString index="186">
            139 158 138 return
          </CharString>
          <CharString index="187">
            121 callgsubr
            hstemhm
            return
          </CharString>
          <CharString index="188">
            480 -236 hlineto
            -68 -70 -51 -73 -57 -36 24 45 342 callgsubr
            vhcurveto
            49 callsubr
            -68 44 -63 79 -22 vhcurveto
            -150 -145 rlineto
            184 hlineto
            214 212 rlineto
            -167 140 -97 callgsubr
          </CharString>
          <CharString index="189">
            rlineto
            20 -28 -26 12 -34 hhcurveto
            -67 -44 -78 -72 -15 hvcurveto
            69 -61 rlineto
            28 19 34 35 32 hhcurveto
            11 10 -4 -8 10 hvcurveto
            96 -60 -192 -40 rlineto
            -60 -14 -28 -34 -44 vvcurveto
            -55 43 -67 23 -23 vhcurveto
            89 21 rlineto
            -4 18 -8 22 21 vvcurveto
            29 8 23 32 8 vhcurveto
            return
          </CharString>
          <CharString index="190">
            vstem
            373 -10 callsubr
            -403 -112 403 hlineto
            102 -178 rmoveto
            83 -360 vlineto
            -106 callsubr
            192 hlineto
            -364 -326 rlineto
            177 hlineto
            327 302 rlineto
            return
          </CharString>
          <CharString index="191">
            -171 142 7 callsubr
            return
          </CharString>
          <CharString index="192">
            vstem
            138 361 rmoveto
            -101 callgsubr
            125 112 -434 -112 168 vlineto
            325 -196 rmoveto
            -434 -383 rlineto
            189 hlineto
            307 267 rlineto
            return
          </CharString>
          <CharString index="193">
            vvcurveto
            18 14 9 23 vhcurveto
            endchar
          </CharString>
          <CharString index="194">
            -106 -69 -49 -91 112 callgsubr
            vhcurveto
            48 118 hlineto
            return
          </CharString>
          <CharString index="195">
            -31 callgsubr
            vhcurveto
            return
          </CharString>
          <CharString index="196">
            48 -20 vhcurveto
            41 callsubr
            return
          </CharString>
          <CharString index="197">
            242 112 rmoveto
            return
          </CharString>
          <CharString index="198">
            230 vlineto
            207 141 130 218 182 -140 144 -206 hvcurveto
            endchar
          </CharString>
          <CharString index="199">
            138 -62 callgsubr
          </CharString>
          <CharString index="200">
            rmoveto
            -88 callgsubr
            180 163 176 callsubr
            -642 -112 95 -174 hlineto
            8 callgsubr
            559 100 vlineto
            endchar
          </CharString>
          <CharString index="201">
            -268 vlineto
            -103 callsubr
            return
          </CharString>
          <CharString index="202">
            119 callgsubr
            36 177 hstem
            40 165 326 165 vstem
            return
          </CharString>
          <CharString index="203">
            -3 callgsubr
            hlineto
            -141 68 -64 122 return
          </CharString>
          <CharString index="204">
            143 151 140 -69 134 return
          </CharString>
          <CharString index="205">
            140 117 139 return
          </CharString>
          <CharString index="206">
            112 156 callgsubr
            return
          </CharString>
          <CharString index="207">
            427 callgsubr
            -389 -240 rmoveto
            329 callsubr
            358 220 rlineto
            158 -35 -100 86 -143 hhcurveto
            -57 -74 -18 -27 -41 hvcurveto
            return
          </CharString>
          <CharString index="208">
            rmoveto
            131 213 112 -487 -112 135 -138 vlineto
            -93 callgsubr
            170 hlineto
            -318 -345 rlineto
            185 hlineto
            297 345 rlineto
            123 vlineto
            endchar
          </CharString>
          <CharString index="209">
            124 rmoveto
            142 105 78 114 117 vvcurveto
            131 -90 72 -133 -71 -77 -27 -31 -42 vhcurveto
            -141 vlineto
            34 41 63 29 57 hhcurveto
            70 31 -37 -54 -101 -150 -138 -123 -84 hvcurveto
            -113 436 124 vlineto
            endchar
          </CharString>
          <CharString index="210">
            hhcurveto
            -48 callgsubr
            202 callsubr
            return
          </CharString>
          <CharString index="211">
            224 -122 112 -107 117 hstemhm
            57 183 callsubr
            return
          </CharString>
          <CharString index="212">
            284 -8 -81 callsubr
            return
          </CharString>
          <CharString index="213">
            -52 -28 38 54 55 28 39 50 31 33 -17 -25 27 hvcurveto
            -46 -13 -16 -98 -60 hhcurveto
            return
          </CharString>
          <CharString index="214">
            354 callgsubr
            44 140 -126 143 113 140 -102 139 return
          </CharString>
          <CharString index="215">
            146 173 146 return
          </CharString>
          <CharString index="216">
            rlineto
            -42 -20 -13 -33 -29 vvcurveto
            -57 49 -45 40 -18 vhcurveto
            75 46 rlineto
            -16 15 -14 18 23 vvcurveto
            12 6 13 12 7 vhcurveto
            return
          </CharString>
          <CharString index="217">
            97 callgsubr
            hlineto
            return
          </CharString>
          <CharString index="218">
            142 -132 174 callgsubr
            return
          </CharString>
          <CharString index="219">
            21 223 callsubr
            return
          </CharString>
          <CharString index="220">
            -130 vlineto
            19 -10 28 -11 33 -9 rrcurveto
            -78 76 callsubr
            72 vlineto
            -1 9 10 0 9 hhcurveto
            18 18 1 3 17 hvcurveto
            -339 128 return
          </CharString>
          <CharString index="221">
            439 callsubr
            hlineto
            endchar
          </CharString>
          <CharString index="222">
            vvcurveto
            208 callgsubr
            271 callgsubr
            vhcurveto
            127 vlineto
            -20 -30 -62 -21 -55 hhcurveto
            -90 -65 38 77 hvcurveto
            return
          </CharString>
          <CharString index="223">
            21 -21 45 118 69 114 -29 118 122 121 -119 112 return
          </CharString>
          <CharString index="224">
            -112 344 -45 -56 hlineto
            -109 -91 -43 -111 -116 100 -27 107 hvcurveto
            return
          </CharString>
          <CharString index="225">
            0 149 -149 249 -217 117 return
          </CharString>
          <CharString index="226">
            -74 -5 113 88 104 101 111 return
          </CharString>
          <CharString index="227">
            -25 6 -26 12 -23 vhcurveto
            return
          </CharString>
          <CharString index="228">
            -56 callsubr
            -67 callsubr
          </CharString>
          <CharString index="229">
            -54 -32 -38 -50 -73 vvcurveto
            -134 134 -70 149 162 121 79 123 72 -42 51 -59 33 vhcurveto
            return
          </CharString>
          <CharString index="230">
            150 callsubr
            325 -256 38 callgsubr
            return
          </CharString>
          <CharString index="231">
            245 callgsubr
            -19 -66 -107 66 319 callsubr
            return
          </CharString>
          <CharString index="232">
            rmoveto
            -69 -72 24 67 63 67 26 75 66 74 -23 -67 -61 -66 -29 -75 hvcurveto
            return
          </CharString>
          <CharString index="233">
            -96 -7 -61 -44 497 callgsubr
            101 -60 127 return
          </CharString>
          <CharString index="234">
            149 callgsubr
            vhcurveto
            return
          </CharString>
          <CharString index="235">
            -88 140 249 -138 vlineto
            return
          </CharString>
          <CharString index="236">
            47 40 -8 -46 -36 -27 -20 -40 return
          </CharString>
          <CharString index="237">
            -50 hlineto
            -44 -40 7 32 24 16 22 56 41 39 -8 -13 36 hvcurveto
            135 100 vlineto
            240 112 rmoveto
            return
          </CharString>
          <CharString index="238">
            -25 hlineto
            147 callgsubr
            return
          </CharString>
          <CharString index="239">
            57 -35 -56 27 -60 hhcurveto
            -123 -96 -93 -165 -136 80 -125 138 59 57 25 60 36 hvcurveto
            return
          </CharString>
          <CharString index="240">
            322 callgsubr
            29 152 -3 134 callsubr
            return
          </CharString>
          <CharString index="241">
            140 35 130 return
          </CharString>
          <CharString index="242">
            148 -129 72 -231 -188 -138 -70 -132 vhcurveto
            -18 142 186 callsubr
            -101 -95 callsubr
            return
          </CharString>
          <CharString index="243">
            104 callgsubr
            24 -11 -30 20 hvcurveto
            67 -98 rlineto
            return
          </CharString>
          <CharString index="244">
            hhcurveto
            -61 -65 26 52 -21 198 callsubr
            return
          </CharString>
          <CharString index="245">
            127 vlineto
            -19 -43 -52 -14 -62 hhcurveto
            -90 -58 39 78 hvcurveto
            296 vlineto
            return
          </CharString>
          <CharString index="246">
            129 callsubr
            -45 -41 30 47 -24 hvcurveto
            -1 7 rlineto
            return
          </CharString>
          <CharString index="247">
            -49 40 -40 49 49 40 40 49 49 -40 40 -49 -49 -40 -40 -49 vhcurveto
            return
          </CharString>
          <CharString index="248">
            65 hmoveto
            296 callgsubr
            -146 hlineto
            return
          </CharString>
          <CharString index="249">
            -168 -85 -93 -124 return
          </CharString>
          <CharString index="250">
            289 -138 vlineto
            return
          </CharString>
          <CharString index="251">
            71 callsubr
            endchar
          </CharString>
          <CharString index="252">
            -46 35 -36 48 return
          </CharString>
          <CharString index="253">
            315 callsubr
            -86 67 -53 88 -22 vhcurveto
            -126 -161 -56 callsubr
            84 129 return
          </CharString>
          <CharString index="254">
            124 callgsubr
            98 96 30 94 hvcurveto
            return
          </CharString>
          <CharString index="255">
            -46 -42 31 49 -23 hvcurveto
            -130 -238 140 hlineto
            return
          </CharString>
          <CharString index="256">
            36 24 -35 60 hhcurveto
            63 47 33 52 26 hvcurveto
            return
          </CharString>
          <CharString index="257">
            194 callgsubr
            -30 return
          </CharString>
          <CharString index="258">
            -21 callsubr
            21 -23 -62 return
          </CharString>
          <CharString index="259">
            30 98 callsubr
            return
          </CharString>
          <CharString index="260">
            154 674 -154 hlineto
            return
          </CharString>
          <CharString index="261">
            rmoveto
            -26 -13 -24 -17 -33 hhcurveto
            return
          </CharString>
          <CharString index="262">
            -125 140 vlineto
            return
          </CharString>
          <CharString index="263">
            -266 vlineto
            -56 -34 -37 -46 -56 -26 36 44 49 29 37 57 5 5 0 -1 6 vhcurveto
            113 vlineto
            1 -9 -7 0 -7 hhcurveto
            -127 -94 -75 -126 -84 43 -65 72 -27 hvcurveto
            return
          </CharString>
          <CharString index="264">
            -50 callgsubr
            56 26 -43 -44 vhcurveto
            return
          </CharString>
          <CharString index="265">
            hhcurveto
            -48 -26 25 61 hvcurveto
            return
          </CharString>
          <CharString index="266">
            36 -47 146 callgsubr
            return
          </CharString>
          <CharString index="267">
            4 -6 122 276 121 hstem
            60 146 222 148 vstem
            320 116 rmoveto
            -66 -48 55 88 90 58 43 56 59 49 -44 -96 -86 -45 -50 -63 hvcurveto
            -114 return
          </CharString>
          <CharString index="268">
            167 callgsubr
            hvcurveto
            return
          </CharString>
          <CharString index="269">
            70 26 31 64 return
          </CharString>
          <CharString index="270">
            105 -65 68 -94 26 vhcurveto
            91 vlineto
            endchar
          </CharString>
          <CharString index="271">
            hstem
            178 154 vstem
            30 19 rmoveto
            -13 25 45 -7 37 hhcurveto
            123 72 75 130 hvcurveto
            469 -154 -465 vlineto
            -53 -26 -23 -45 -29 -27 10 13 -21 vhcurveto
            return
          </CharString>
          <CharString index="272">
            190 163 vlineto
            -458 hmoveto
            153 -75 hlineto
            3 -15 -15 2 -17 0 callsubr
            967 109 rmoveto
            112 -1472 184 callgsubr
            vlineto
            return
          </CharString>
          <CharString index="273">
            263 rmoveto
            144 296 rlineto
            -296 vlineto
            225 hmoveto
            -80 393 -232 hlineto
            -200 -393 rlineto
            -124 287 -139 145 139 80 vlineto
            endchar
          </CharString>
          <CharString index="274">
            rmoveto
            -152 hlineto
            -152 -162 152 -162 rlineto
            152 hlineto
            -146 162 rlineto
            return
          </CharString>
          <CharString index="275">
            399 callgsubr
            205 112 hstem
            214 callgsubr
            return
          </CharString>
          <CharString index="276">
            209 callsubr
            vlineto
            -51 -18 -20 -46 vhcurveto
            -69 -110 hlineto
            return
          </CharString>
          <CharString index="277">
            -14 -7 2 2 -14 hvcurveto
            -110 vlineto
            -7 28 13 0 26 hhcurveto
            return
          </CharString>
          <CharString index="278">
            208 callsubr
            -108 99 -60 119 return
          </CharString>
          <CharString index="279">
            112 callsubr
            67 177 hstem
            return
          </CharString>
          <CharString index="280">
            55 40 38 51 22 17 -2 -7 20 return
          </CharString>
          <CharString index="281">
            112 -110 115 0 -20 hstemhm
            return
          </CharString>
          <CharString index="282">
            -130 -242 140 hlineto
            return
          </CharString>
          <CharString index="283">
            vlineto
            90 callsubr
            return
          </CharString>
          <CharString index="284">
            559 rmoveto
            112 return
          </CharString>
          <CharString index="285">
            rmoveto
            -75 61 -61 75 75 61 61 75 75 -61 61 -75 -75 -61 -61 -75 vhcurveto
            83 3 rmoveto
            29 21 27 32 32 21 -27 -29 -29 -21 -27 -32 -32 -21 27 29 vhcurveto
            return
          </CharString>
          <CharString index="286">
            -115 81 -75 103 37 32 9 17 26 return
          </CharString>
          <CharString index="287">
            222 callgsubr
            hvcurveto
            return
          </CharString>
          <CharString index="288">
            116 45 callgsubr
            return
          </CharString>
          <CharString index="289">
            151 callgsubr
            38 177 hstem
            35 152 193 152 vstem
            return
          </CharString>
          <CharString index="290">
            133 88 131 return
          </CharString>
          <CharString index="291">
            214 callsubr
            241 112 rmoveto
            return
          </CharString>
          <CharString index="292">
            vvcurveto
            55 46 40 52 32 31 -11 -15 21 vhcurveto
            130 vlineto
            return
          </CharString>
          <CharString index="293">
            13 vlineto
            51 52 38 132 171 50 -37 -71 vhcurveto
            -29 return
          </CharString>
          <CharString index="294">
            -139 35 98 -77 114 hhcurveto
            67 57 26 38 23 hvcurveto
            return
          </CharString>
          <CharString index="295">
            110 48 -30 callgsubr
            return
          </CharString>
          <CharString index="296">
            -52 -40 328 callsubr
            return
          </CharString>
          <CharString index="297">
            224 callgsubr
            241 112 rmoveto
            return
          </CharString>
          <CharString index="298">
            -89 140 524 -138 vlineto
            -72 -11 -55 -18 -60 hhcurveto
            hintmask 11111010
            -61 -51 38 63 63 45 40 81 hvcurveto
            250 176 494 callsubr
          </CharString>
          <CharString index="299">
            hhcurveto
            37 20 -16 -18 -53 -85 -22 -66 -16 hvcurveto
            return
          </CharString>
          <CharString index="300">
            38 callsubr
            vstem
            return
          </CharString>
          <CharString index="301">
            -4 116 415 callsubr
            return
          </CharString>
          <CharString index="302">
            -12 210 callsubr
            hlineto
            return
          </CharString>
          <CharString index="303">
            -50 -44 -5 -10 -38 hvcurveto
            -25 16 -13 19 20 86 callsubr
          </CharString>
          <CharString index="304">
            -51 94 rlineto
            47 -26 -33 25 -46 hhcurveto
            -49 -54 -28 -47 -30 hvcurveto
            45 -85 rlineto
            14 9 23 26 26 hhcurveto
            15 11 -8 -16 7 hvcurveto
            47 -87 rlineto
            return
          </CharString>
          <CharString index="305">
            hvcurveto
            54 callsubr
            return
          </CharString>
          <CharString index="306">
            -35 hlineto
            1 -9 -8 0 -9 hhcurveto
            -104 -63 -49 -71 -62 57 -37 79 -2 hvcurveto
            return
          </CharString>
          <CharString index="307">
            142 -111 142 213 142 -104 142 return
          </CharString>
          <CharString index="308">
            -94 callsubr
            150 return
          </CharString>
          <CharString index="309">
            94 vlineto
            -2 -6 -6 -1 -5 hhcurveto
            -24 -20 15 28 28 return
          </CharString>
          <CharString index="310">
            140 7 132 147 142 return
          </CharString>
          <CharString index="311">
            rmoveto
            128 callgsubr
            return
          </CharString>
          <CharString index="312">
            316 callsubr
            79 135 return
          </CharString>
          <CharString index="313">
            401 rmoveto
            158 98 112 return
          </CharString>
          <CharString index="314">
            -15 -4 -14 -6 -13 vhcurveto
            return
          </CharString>
          <CharString index="315">
            -96 -7 -61 -54 -80 vvcurveto
            return
          </CharString>
          <CharString index="316">
            -112 208 -92 return
          </CharString>
          <CharString index="317">
            vlineto
            -25 callgsubr
            -143 -61 callgsubr
            return
          </CharString>
          <CharString index="318">
            -8 117 -89 -21 256 117 -30 321 callgsubr
            hstemhm
            45 321 callgsubr
            123 321 callgsubr
            return
          </CharString>
          <CharString index="319">
            146 262 hlineto
            -57 35 55 -24 63 hhcurveto
            141 76 117 144 160 -87 98 -130 -62 -55 -27 -57 -36 hvcurveto
            endchar
          </CharString>
          <CharString index="320">
            -21 106 124 return
          </CharString>
          <CharString index="321">
            362 rmoveto
            hintmask 0101111110000000
            -107 callgsubr
            return
          </CharString>
          <CharString index="322">
            28 callgsubr
            70 return
          </CharString>
          <CharString index="323">
            -104 -99 -51 -101 -42 -61 6 37 38 50 5 50 vhcurveto
            49 118 hlineto
            return
          </CharString>
          <CharString index="324">
            -21 100 113 -42 304 callsubr
            return
          </CharString>
          <CharString index="325">
            -179 264 176 243 rlineto
            -168 hlineto
            -160 -227 rlineto
            return
          </CharString>
          <CharString index="326">
            112 351 callgsubr
            return
          </CharString>
          <CharString index="327">
            0 190 -189 118 -41 112 return
          </CharString>
          <CharString index="328">
            115 96 112 hstem
            230 133 return
          </CharString>
          <CharString index="329">
            21 341 callsubr
            return
          </CharString>
          <CharString index="330">
            -21 674 -20 return
          </CharString>
          <CharString index="331">
            -24 callgsubr
            -90 113 -42 434 callgsubr
            -101 112 59 -30 callgsubr
            29 142 return
          </CharString>
          <CharString index="332">
            -29 -8 -16 -17 -30 97 callgsubr
            471 callgsubr
            112 return
          </CharString>
          <CharString index="333">
            102 65 117 88 107 63 3 callgsubr
            44 143 -117 138 105 140 -116 132 -90 140 return
          </CharString>
          <CharString index="334">
            rmoveto
            121 hlineto
            141 261 rlineto
            -158 hlineto
            -289 -261 rmoveto
            121 hlineto
            121 261 rlineto
            -146 hlineto
            endchar
          </CharString>
          <CharString index="335">
            166 461 callsubr
            hstem
            60 135 return
          </CharString>
          <CharString index="336">
            317 callgsubr
            -18 4 -15 7 -14 vhcurveto
            return
          </CharString>
          <CharString index="337">
            rmoveto
            123 110 69 120 403 callgsubr
            return
          </CharString>
          <CharString index="338">
            353 callgsubr
            97 152 -19 133 return
          </CharString>
          <CharString index="339">
            121 40 112 20 117 62 -30 callgsubr
            return
          </CharString>
          <CharString index="340">
            140 148 141 return
          </CharString>
          <CharString index="341">
            862 rmoveto
            262 callgsubr
            return
          </CharString>
          <CharString index="342">
            162 callsubr
            13 12 -3 -6 12 vhcurveto
            -9 -23 -4 -26 -27 vvcurveto
            return
          </CharString>
          <CharString index="343">
            61 27 16 46 23 29 -7 -8 27 vhcurveto
            -5 -19 -2 -21 -22 vvcurveto
            return
          </CharString>
          <CharString index="344">
            -10 callsubr
            -240 -339 478 callsubr
            21 44 return
          </CharString>
          <CharString index="345">
            105 308 113 390 callsubr
            43 141 -125 146 70 131 41 140 -59 127 return
          </CharString>
          <CharString index="346">
            -74 callsubr
            112 -242 -310 vlineto
            -111 -88 -29 -65 -57 -50 20 89 callsubr
            return
          </CharString>
          <CharString index="347">
            -110 vlineto
            -12 35 22 -2 32 hhcurveto
            79 66 41 101 hvcurveto
            214 111 -559 140 -97 callgsubr
          </CharString>
          <CharString index="348">
            209 hlineto
            -1 3 rlineto
            1 152 252 273 callgsubr
          </CharString>
          <CharString index="349">
            91 77 51 119 hvcurveto
            121 75 vlineto
            endchar
          </CharString>
          <CharString index="350">
            320 callsubr
            -126 return
          </CharString>
          <CharString index="351">
            160 -139 -21 36 124 return
          </CharString>
          <CharString index="352">
            hstemhm
            152 callsubr
            return
          </CharString>
          <CharString index="353">
            -112 110 return
          </CharString>
          <CharString index="354">
            102 71 121 205 111 83 464 callsubr
            143 -117 138 125 140 -136 132 return
          </CharString>
          <CharString index="355">
            31 27 19 36 44 vvcurveto
            92 -59 56 -126 3 vhcurveto
            -106 -10 rlineto
            -28 2 -13 15 22 vvcurveto
            28 26 1 25 vhcurveto
            return
          </CharString>
          <CharString index="356">
            vlineto
            -15 41 49 -6 40 hhcurveto
            119 84 64 111 47 -15 43 -43 28 hvcurveto
            52 hlineto
            31 23 -5 -7 17 hvcurveto
            return
          </CharString>
          <CharString index="357">
            -39 -46 -80 -97 -57 -36 24 45 342 callgsubr
            vhcurveto
            115 return
          </CharString>
          <CharString index="358">
            -21 366 -54 callgsubr
            45 142 return
          </CharString>
          <CharString index="359">
            -112 176 vlineto
            -76 callgsubr
            return
          </CharString>
          <CharString index="360">
            -276 vlineto
            -52 -30 -21 -42 -42 -33 31 50 return
          </CharString>
          <CharString index="361">
            -115 vlineto
            56 callsubr
            -71 -98 hlineto
            return
          </CharString>
          <CharString index="362">
            117 76 3 callgsubr
            return
          </CharString>
          <CharString index="363">
            -138 -8 119 283 121 return
          </CharString>
          <CharString index="364">
            142 vstem
            143 callgsubr
            return
          </CharString>
          <CharString index="365">
            -30 callgsubr
            329 callgsubr
            return
          </CharString>
          <CharString index="366">
            112 hstem
            35 143 return
          </CharString>
          <CharString index="367">
            -30 callgsubr
            45 return
          </CharString>
          <CharString index="368">
            345 callgsubr
            393 callgsubr
            -102 return
          </CharString>
          <CharString index="369">
            107 62 109 43 -30 callgsubr
            60 140 -122 143 139 140 -130 139 -72 131 return
          </CharString>
          <CharString index="370">
            -237 239 rlineto
            121 7 127 72 161 vvcurveto
            115 -78 83 -124 -113 -70 -77 -87 vhcurveto
            return
          </CharString>
          <CharString index="371">
            655 rmoveto
            -124 287 vlineto
            -255 -531 rlineto
            154 hlineto
            254 531 rlineto
            124 vlineto
            endchar
          </CharString>
          <CharString index="372">
            -36 -33 -21 -45 -51 vvcurveto
            -134 101 -72 116 60 47 19 36 32 vhcurveto
            -131 137 459 vlineto
            return
          </CharString>
          <CharString index="373">
            118 -13 114 -97 106 42 364 callgsubr
            return
          </CharString>
          <CharString index="374">
            47 -11 -48 42 -85 hhcurveto
            -122 -69 -85 -129 -160 108 -105 172 279 callsubr
            return
          </CharString>
          <CharString index="375">
            152 callgsubr
            40 38 callgsubr
            return
          </CharString>
          <CharString index="376">
            -75 -198 117 635 177 hstem
            5 522 vstem
            return
          </CharString>
          <CharString index="377">
            21 -21 74 110 return
          </CharString>
          <CharString index="378">
            133 83 142 return
          </CharString>
          <CharString index="379">
            115 85 112 return
          </CharString>
          <CharString index="380">
            vvcurveto
            -201 179 -110 170 17 18 2 2 17 vhcurveto
            114 vlineto
            -1 -7 -8 0 -7 hhcurveto
            return
          </CharString>
          <CharString index="381">
            234 -189 -11 callsubr
            393 120 callgsubr
            35 143 return
          </CharString>
          <CharString index="382">
            hhcurveto
            -90 -65 38 77 72 57 47 114 return
          </CharString>
          <CharString index="383">
            142 291 callsubr
            return
          </CharString>
          <CharString index="384">
            38 callgsubr
            482 callsubr
            return
          </CharString>
          <CharString index="385">
            260 callsubr
            144 -137 142 return
          </CharString>
          <CharString index="386">
            19 20 1 3 20 hvcurveto
            return
          </CharString>
          <CharString index="387">
            426 callgsubr
            38 37 4 9 33 vhcurveto
            -84 -177 vlineto
            return
          </CharString>
          <CharString index="388">
            -237 21 -21 379 131 44 177 441 callgsubr
            return
          </CharString>
          <CharString index="389">
            rlineto
            -43 -25 -16 -31 -75 callgsubr
            return
          </CharString>
          <CharString index="390">
            -112 293 -82 vlineto
            -111 -14 -112 -65 -127 vvcurveto
            -134 124 -80 149 vhcurveto
            return
          </CharString>
          <CharString index="391">
            318 callsubr
            rlinecurve
            -24 -26 -2 -5 -26 hvcurveto
            return
          </CharString>
          <CharString index="392">
            -62 callsubr
            41 25 -22 -30 10 vhcurveto
            return
          </CharString>
          <CharString index="393">
            399 callsubr
            82 -129 -56 callsubr
            return
          </CharString>
          <CharString index="394">
            21 5 19 7 16 10 rrcurveto
            26 55 62 30 76 hhcurveto
            return
          </CharString>
          <CharString index="395">
            199 21 -21 354 153 return
          </CharString>
          <CharString index="396">
            183 callsubr
            53 142 return
          </CharString>
          <CharString index="397">
            6 -8 141 410 140 return
          </CharString>
          <CharString index="398">
            152 356 callgsubr
            return
          </CharString>
          <CharString index="399">
            559 368 callgsubr
            return
          </CharString>
          <CharString index="400">
            210 439 rmoveto
            return
          </CharString>
          <CharString index="401">
            -21 394 118 return
          </CharString>
          <CharString index="402">
            -116 142 return
          </CharString>
          <CharString index="403">
            118 -109 111 282 352 callgsubr
            238 98 callsubr
            return
          </CharString>
          <CharString index="404">
            398 rmoveto
            165 99 rlineto
            -497 145 654 -126 vlineto
            -184 -107 rlineto
            endchar
          </CharString>
          <CharString index="405">
            48 118 hlineto
            return
          </CharString>
          <CharString index="406">
            122 158 return
          </CharString>
          <CharString index="407">
            hlineto
            345 callsubr
            -14 hlineto
            return
          </CharString>
          <CharString index="408">
            132 309 hlineto
            25 7 21 7 14 8 rrcurveto
            127 vlineto
            -22 -37 -68 -21 -62 hhcurveto
            return
          </CharString>
          <CharString index="409">
            399 callgsubr
            -38 112 131 367 callgsubr
            return
          </CharString>
          <CharString index="410">
            -107 651 99 hstem
            72 356 vstem
            428 651 316 callgsubr
            endchar
          </CharString>
          <CharString index="411">
            179 callgsubr
            142 return
          </CharString>
          <CharString index="412">
            -3 callgsubr
            vlineto
            -143 90 -66 121 return
          </CharString>
          <CharString index="413">
            271 141 callgsubr
            return
          </CharString>
          <CharString index="414">
            -37 hlineto
            -48 -24 32 38 33 14 27 28 22 hvcurveto
            return
          </CharString>
          <CharString index="415">
            312 callgsubr
            107 142 return
          </CharString>
          <CharString index="416">
            -94 -7 -63 -42 -75 vvcurveto
            -86 63 -54 85 -18 vhcurveto
            return
          </CharString>
          <CharString index="417">
            112 -68 114 85 460 callsubr
            return
          </CharString>
          <CharString index="418">
            272 callsubr
            hstem
            79 135 return
          </CharString>
          <CharString index="419">
            -21 234 125 190 125 return
          </CharString>
          <CharString index="420">
            134 callsubr
            131 142 return
          </CharString>
          <CharString index="421">
            -171 -4 398 callsubr
            return
          </CharString>
          <CharString index="422">
            -91 -5 -52 -46 -75 vvcurveto
            return
          </CharString>
          <CharString index="423">
            272 callsubr
            hstemhm
            return
          </CharString>
          <CharString index="424">
            59 vhcurveto
            298 callsubr
            return
          </CharString>
          <CharString index="425">
            -44 68 -55 23 -78 1 return
          </CharString>
          <CharString index="426">
            -400 145 400 return
          </CharString>
          <CharString index="427">
            37 52 403 callgsubr
            return
          </CharString>
          <CharString index="428">
            323 callsubr
            vhcurveto
            return
          </CharString>
          <CharString index="429">
            165 103 166 return
          </CharString>
          <CharString index="430">
            28 23 11 28 return
          </CharString>
          <CharString index="431">
            138 hlineto
            9 20 0 24 14 vvcurveto
            86 -83 65 -122 -30 -28 -3 -5 -24 vhcurveto
            return
          </CharString>
          <CharString index="432">
            -173 21 98 -65 128 hhcurveto
            63 68 30 34 16 hvcurveto
            -100 439 callsubr
            return
          </CharString>
          <CharString index="433">
            270 -120 -21 375 112 83 260 callsubr
            159 callgsubr
            return
          </CharString>
          <CharString index="434">
            21 -21 171 290 callgsubr
            hstem
            60 38 callsubr
            return
          </CharString>
          <CharString index="435">
            21 44 41 36 return
          </CharString>
          <CharString index="436">
            23 37 67 27 62 hhcurveto
            64 43 -26 -38 30 hvcurveto
            -282 -170 71 -108 return
          </CharString>
          <CharString index="437">
            87 vlineto
            -20 34 41 -12 46 hhcurveto
            113 75 65 101 21 -2 20 -6 17 hvcurveto
            return
          </CharString>
          <CharString index="438">
            75 36 39 61 32 31 -11 -15 21 vhcurveto
            130 vlineto
            14 -20 -39 12 -34 hhcurveto
            return
          </CharString>
          <CharString index="439">
            hlineto
            -7 -21 -3 -23 -24 425 callgsubr
            return
          </CharString>
          <CharString index="440">
            735 -82 callsubr
            return
          </CharString>
          <CharString index="441">
            207 256 callgsubr
            return
          </CharString>
          <CharString index="442">
            258 callgsubr
            -150 142 return
          </CharString>
          <CharString index="443">
            vvcurveto
            44 34 25 39 37 30 -15 -11 21 vhcurveto
            return
          </CharString>
          <CharString index="444">
            -303 112 callsubr
            return
          </CharString>
          <CharString index="445">
            -49 -39 -16 -25 -29 hvcurveto
            100 return
          </CharString>
          <CharString index="446">
            rmoveto
            176 117 112 return
          </CharString>
          <CharString index="447">
            107 -232 142 559 return
          </CharString>
          <CharString index="448">
            -21 86 112 return
          </CharString>
          <CharString index="449">
            170 hlineto
            92 119 92 -119 -56 callsubr
            -176 199 rlineto
            return
          </CharString>
          <CharString index="450">
            rmoveto
            42 -34 34 -42 452 callsubr
            vhcurveto
            return
          </CharString>
          <CharString index="451">
            210 99 93 322 callgsubr
            107 135 -64 134 callsubr
            return
          </CharString>
          <CharString index="452">
            -76 callgsubr
            -29 -16 -26 -38 -20 vhcurveto
            39 -30 -53 30 -75 hhcurveto
            return
          </CharString>
          <CharString index="453">
            47 -15 43 -43 28 vhcurveto
            141 105 callgsubr
            hlineto
            endchar
          </CharString>
          <CharString index="454">
            14 0 124 426 124 return
          </CharString>
          <CharString index="455">
            1 -243 rlineto
            -153 103 hlineto
            return
          </CharString>
          <CharString index="456">
            -138 459 callgsubr
            return
          </CharString>
          <CharString index="457">
            177 hstem
            353 136 vstem
            return
          </CharString>
          <CharString index="458">
            124 hstem
            195 155 vstem
            return
          </CharString>
          <CharString index="459">
            -30 callgsubr
            65 142 return
          </CharString>
          <CharString index="460">
            328 callsubr
            17 59 return
          </CharString>
          <CharString index="461">
            -122 -21 210 99 return
          </CharString>
          <CharString index="462">
            299 callgsubr
            112 return
          </CharString>
          <CharString index="463">
            1 118 -13 124 return
          </CharString>
          <CharString index="464">
            21 -21 254 123 return
          </CharString>
          <CharString index="465">
            -68 30 -60 67 -14 vhcurveto
            return
          </CharString>
          <CharString index="466">
            rlineto
            -139 hlineto
            return
          </CharString>
          <CharString index="467">
            -56 -38 -26 -61 return
          </CharString>
          <CharString index="468">
            -221 -262 211 46 485 callgsubr
            return
          </CharString>
          <CharString index="469">
            vhcurveto
            -104 17 69 -45 98 -43 callsubr
            return
          </CharString>
          <CharString index="470">
            -63 260 callgsubr
            550 351 callsubr
            return
          </CharString>
          <CharString index="471">
            112 59 352 callsubr
            -136 144 155 142 return
          </CharString>
          <CharString index="472">
            -240 rmoveto
            118 -40 vlineto
            486 callsubr
            return
          </CharString>
          <CharString index="473">
            361 callgsubr
            -76 67 -33 16 -7 hvcurveto
            return
          </CharString>
          <CharString index="474">
            94 255 callsubr
            return
          </CharString>
          <CharString index="475">
            44 60 50 58 36 return
          </CharString>
          <CharString index="476">
            -21 243 111 return
          </CharString>
          <CharString index="477">
            -46 -36 -36 -46 return
          </CharString>
          <CharString index="478">
            21 -21 400 107 96 117 -42 -20 hstemhm
            96 145 145 return
          </CharString>
          <CharString index="479">
            124 -122 213 callsubr
            -20 99 93 322 callgsubr
            return
          </CharString>
          <CharString index="480">
            -117 -3 -79 -50 -37 -69 rrcurveto
            383 205 483 callsubr
            return
          </CharString>
          <CharString index="481">
            rlineto
            -35 -31 -14 -32 -30 vvcurveto
            -50 41 -46 53 -26 vhcurveto
            76 46 rlineto
            return
          </CharString>
          <CharString index="482">
            vvcurveto
            -112 96 -69 111 48 39 13 26 31 vhcurveto
            -100 134 return
          </CharString>
          <CharString index="483">
            157 118 284 276 callgsubr
            return
          </CharString>
          <CharString index="484">
            113 159 114 -97 112 70 260 callsubr
            142 return
          </CharString>
          <CharString index="485">
            141 -62 callgsubr
          </CharString>
          <CharString index="486">
            hvcurveto
            -130 vlineto
            return
          </CharString>
          <CharString index="487">
            hhcurveto
            160 callgsubr
            -76 callsubr
            hvcurveto
            return
          </CharString>
          <CharString index="488">
            67 57 26 38 23 hvcurveto
            -170 439 callsubr
            112 return
          </CharString>
          <CharString index="489">
            21 -21 419 callgsubr
            return
          </CharString>
          <CharString index="490">
            -72 callsubr
            -56 -48 -16 -27 -37 hvcurveto
            return
          </CharString>
          <CharString index="491">
            -112 100 -559 140 559 494 callsubr
          </CharString>
          <CharString index="492">
            112 95 112 hstem
            5 138 return
          </CharString>
          <CharString index="493">
            117 -114 113 -102 111 return
          </CharString>
          <CharString index="494">
            164 -37 3 callgsubr
            return
          </CharString>
          <CharString index="495">
            112 -105 115 hstemhm
            92 140 return
          </CharString>
          <CharString index="496">
            vlineto
            61 39 32 50 46 26 -40 -44 return
          </CharString>
          <CharString index="497">
            67 188 callsubr
            return
          </CharString>
          <CharString index="498">
            vvcurveto
            462 callgsubr
            return
          </CharString>
          <CharString index="499">
            vlineto
            209 callgsubr
            return
          </CharString>
          <CharString index="500">
            25 vvcurveto
            21 20 9 37 vhcurveto
            return
          </CharString>
          <CharString index="501">
            -607 664 37 25 102 return
          </CharString>
          <CharString index="502">
            114 51 -30 callgsubr
            return
          </CharString>
          <CharString index="503">
            16 61 -3 -4 18 hvcurveto
            return
          </CharString>
          <CharString index="504">
            -134 102 -72 126 return
          </CharString>
          <CharString index="505">
            113 289 115 return
          </CharString>
          <CharString index="506">
            170 hlineto
            82 129 return
          </CharString>
          <CharString index="507">
            -21 497 callsubr
            return
          </CharString>
          <CharString index="508">
            138 105 141 return
          </CharString>
          <CharString index="509">
            vhcurveto
            121 vlineto
            return
          </CharString>
          <CharString index="510">
            -128 152 return
          </CharString>
          <CharString index="511">
            142 -133 152 144 142 161 141 return
          </CharString>
          <CharString index="512">
            -21 262 104 193 112 hstem
            203 140 vstem
            return
          </CharString>
          <CharString index="513">
            690 -10 callsubr
            -720 -112 480 -236 hlineto
            return
          </CharString>
          <CharString index="514">
            -185 151 -130 -151 -184 -118 184 return
          </CharString>
          <CharString index="515">
            206 507 114 callgsubr
            return
          </CharString>
          <CharString index="516">
            rmoveto
            417 callsubr
            return
          </CharString>
          <CharString index="517">
            hlineto
            85 -19 -70 70 -123 hhcurveto
            -111 -71 -68 -88 hvcurveto
            return
          </CharString>
          <CharString index="518">
            hhcurveto
            -52 -40 18 44 35 40 16 55 hvcurveto
            298 callsubr
            return
          </CharString>
          <CharString index="519">
            91 113 467 callsubr
            return
          </CharString>
          <CharString index="520">
            146 -142 276 callsubr
            return
          </CharString>
          <CharString index="521">
            111 205 112 -107 117 hstemhm
            214 callgsubr
            return
          </CharString>
          <CharString index="522">
            -112 112 return
          </CharString>
          <CharString index="523">
            100 callgsubr
            -27 112 244 -30 callgsubr
            return
          </CharString>
          <CharString index="524">
            -39 -25 6 26 28 26 8 37 hvcurveto
            200 155 return
          </CharString>
          <CharString index="525">
            198 -177 -21 384 130 callgsubr
            return
          </CharString>
          <CharString index="526">
            -45 235 -190 73 callsubr
            88 113 return
          </CharString>
          <CharString index="527">
            37 callsubr
            323 callsubr
            return
          </CharString>
          <CharString index="528">
            204 callgsubr
            396 140 return
          </CharString>
          <CharString index="529">
            1171 -10 callsubr
            -1201 -112 958 return
          </CharString>
          <CharString index="530">
            -95 callsubr
            hlineto
            return
          </CharString>
          <CharString index="531">
            -5 callgsubr
            53 34 -38 -42 11 vhcurveto
            return
          </CharString>
          <CharString index="532">
            302 336 callgsubr
            return
          </CharString>
          <CharString index="533">
            67 36 42 61 76 vvcurveto
            106 -76 68 -100 26 vhcurveto
            90 return
          </CharString>
          <CharString index="534">
            vvcurveto
            -57 callsubr
            return
          </CharString>
          <CharString index="535">
            142 vstem
            215 hmoveto
            142 671 -142 hlineto
            return
          </CharString>
          <CharString index="536">
            106 53 20 34 43 23 -36 -57 vhcurveto
            -301 146 return
          </CharString>
          <CharString index="537">
            hlineto
            250 -196 rmoveto
            207 196 -207 hlineto
            return
          </CharString>
          <CharString index="538">
            -35 34 -38 13 -57 1 rrcurveto
            -24 -26 -2 -5 -26 hvcurveto
            return
          </CharString>
          <CharString index="539">
            153 hlineto
            95 -49 50 -104 vhcurveto
            return
          </CharString>
          <CharString index="540">
            -476 142 404 141 return
          </CharString>
          <CharString index="541">
            rmoveto
            122 261 -122 hlineto
            return
          </CharString>
          <CharString index="542">
            hlineto
            -92 -99 -43 -109 -87 74 return
          </CharString>
          <CharString index="543">
            186 162 callgsubr
            hstem
            return
          </CharString>
          <CharString index="544">
            476 callsubr
            hvcurveto
            return
          </CharString>
          <CharString index="545">
            hstemhm
            474 callsubr
            return
          </CharString>
          <CharString index="546">
            141 -74 callsubr
            return
          </CharString>
          <CharString index="547">
            rmoveto
            -146 hlineto
            return
          </CharString>
          <CharString index="548">
            -51 -14 -16 -46 vhcurveto
            -69 -110 hlineto
            54 -136 return
          </CharString>
          <CharString index="549">
            17 -25 -31 11 -41 hhcurveto
            -78 -46 -41 -52 -20 hvcurveto
            return
          </CharString>
          <CharString index="550">
            hlineto
            -32 -154 rlineto
            123 hlineto
            33 154 rlineto
            return
          </CharString>
          <CharString index="551">
            vlineto
            19 -39 -40 6 -45 hhcurveto
            -93 -89 -53 -116 return
          </CharString>
          <CharString index="552">
            553 -10 callsubr
            -583 -112 583 hlineto
            return
          </CharString>
          <CharString index="553">
            -21 375 112 83 -30 callgsubr
            -26 152 return
          </CharString>
          <CharString index="554">
            81 10 51 44 78 vvcurveto
            29 -9 28 -17 22 vhcurveto
            return
          </CharString>
          <CharString index="555">
            -6 131 174 125 108 124 hstem
            return
          </CharString>
          <CharString index="556">
            472 callgsubr
            vhcurveto
            return
          </CharString>
          <CharString index="557">
            47 -11 -48 42 -85 hhcurveto
            -43 -37 -11 -19 -29 hvcurveto
            return
          </CharString>
          <CharString index="558">
            450 -10 callsubr
            -480 -112 480 hlineto
            return
          </CharString>
          <CharString index="559">
            -56 callgsubr
            -42 34 -34 42 42 34 34 42 return
          </CharString>
          <CharString index="560">
            -898 rmoveto
            153 callsubr
            endchar
          </CharString>
          <CharString index="561">
            -150 142 559 90 -16 callsubr
          </CharString>
          <CharString index="562">
            464 callsubr
            142 return
          </CharString>
          <CharString index="563">
            81 34 47 68 87 vvcurveto
            return
          </CharString>
          <CharString index="564">
            -30 callgsubr
            30 143 return
          </CharString>
          <CharString index="565">
            -46 -42 -39 -101 -17 vhcurveto
            return
          </CharString>
          <CharString index="566">
            -112 456 -145 return
          </CharString>
          <CharString index="567">
            -30 callgsubr
            20 138 return
          </CharString>
          <CharString index="568">
            111 282 112 return
          </CharString>
          <CharString index="569">
            214 -118 139 return
          </CharString>
          <CharString index="570">
            104 53 112 return
          </CharString>
          <CharString index="571">
            -30 callgsubr
            35 return
          </CharString>
          <CharString index="572">
            -110 83 -47 99 14 25 2 9 22 vhcurveto
            return
          </CharString>
          <CharString index="573">
            391 65 callgsubr
            return
          </CharString>
          <CharString index="574">
            155 311 callsubr
            return
          </CharString>
          <CharString index="575">
            33 157 rlineto
            -124 hlineto
            -33 -157 rlineto
            return
          </CharString>
          <CharString index="576">
            hhcurveto
            67 57 26 38 23 hvcurveto
            223 callgsubr
            return
          </CharString>
          <CharString index="577">
            -8 132 104 118 187 130 hstem
            return
          </CharString>
          <CharString index="578">
            hstem
            60 108 callsubr
            vstem
            206 return
          </CharString>
          <CharString index="579">
            114 -72 322 callgsubr
            45 142 return
          </CharString>
          <CharString index="580">
            78 15 20 3 5 16 hvcurveto
            return
          </CharString>
          <CharString index="581">
            35 148 222 146 return
          </CharString>
          <CharString index="582">
            100 -66 callsubr
            return
          </CharString>
          <CharString index="583">
            hlineto
            -189 -88 -96 -136 return
          </CharString>
          <CharString index="584">
            22 vvcurveto
            28 26 11 25 vhcurveto
            return
          </CharString>
          <CharString index="585">
            hlineto
            397 callgsubr
            return
          </CharString>
          <CharString index="586">
            174 134 callsubr
            return
          </CharString>
          <CharString index="587">
            hstem
            45 499 vstem
            return
          </CharString>
          <CharString index="588">
            482 callgsubr
            65 return
          </CharString>
          <CharString index="589">
            238 140 return
          </CharString>
          <CharString index="590">
            rmoveto
            97 112 return
          </CharString>
          <CharString index="591">
            25 26 -18 19 -26 -25 -19 -19 -26 vhcurveto
            return
          </CharString>
          <CharString index="592">
            rmoveto
            101 112 -606 184 callgsubr
            return
          </CharString>
          <CharString index="593">
            -58 -31 18 43 26 12 19 19 16 hvcurveto
            return
          </CharString>
          <CharString index="594">
            -48 -26 25 61 hvcurveto
            190 163 vlineto
            return
          </CharString>
          <CharString index="595">
            21 -21 139 124 296 97 hstem
            return
          </CharString>
          <CharString index="596">
            117 -25 callsubr
            return
          </CharString>
          <CharString index="597">
            -8 -18 -17 -3 -16 hhcurveto
            -37 -22 22 25 return
          </CharString>
          <CharString index="598">
            123 182 -30 callgsubr
            80 139 return
          </CharString>
          <CharString index="599">
            hlineto
            238 112 rmoveto
            -921 -112 return
          </CharString>
          <CharString index="600">
            rmoveto
            296 callgsubr
            -146 hlineto
            endchar
          </CharString>
          <CharString index="601">
            100 273 callgsubr
          </CharString>
          <CharString index="602">
            100 -100 189 return
          </CharString>
          <CharString index="603">
            133 112 return
          </CharString>
          <CharString index="604">
            171 112 return
          </CharString>
        <CharString name=".notdef">
          -89 0 52 597 52 hstem
          4 55 400 55 vstem
          4 hmoveto
          510 701 -510 hlineto
          55 -52 rmoveto
          400 -597 -400 hlineto
          200 250 rmoveto
          105 -209 rlineto
          60 hlineto
          -135 254 135 261 rlineto
          -60 hlineto
          -100 -206 rlineto
          -4 hlineto
          -105 206 rlineto
          -60 hlineto
          134 -255 -134 -260 rlineto
          60 hlineto
          100 209 rlineto
          endchar
        </CharString>
        <CharString name="A">
          32 callsubr
          hstemhm
          23 644 hintmask 11011000
          262 262 rmoveto
          7 24 rlineto
          hintmask 11101000
          -91 callgsubr
        </CharString>
        <CharString name="AE">
          333 0 123 15 124 14 122 153 123 -60 60 hstemhm
          467 149 hintmask 11101100
          301 262 rmoveto
          12 24 68 134 56 117 30 77 rlinecurve
          -352 vlineto
          hintmask 10110100
          149 -139 rmoveto
          153 232 122 -232 153 260 123 -543 vlineto
          -325 -674 rlineto
          161 hlineto
          hintmask 11110100
          69 138 rlineto
          229 hlineto
          hintmask 10110100
          -138 413 123 vlineto
          endchar
        </CharString>
        <CharString name="Aacute">
          32 callsubr
          67 177 hstemhm
          23 644 hintmask 11011100
          527 898 51 callgsubr
          -154 -459 rmoveto
          7 24 rlineto
          hintmask 11101100
          -91 callgsubr
        </CharString>
        <CharString name="Abreve">
          32 callsubr
          63 92 hstemhm
          144 358 callgsubr
          hintmask 11011110
          428 898 -7 callgsubr
          -278 -636 rmoveto
          7 24 rlineto
          hintmask 11101110
          -91 callgsubr
        </CharString>
        <CharString name="Acircumflex">
          32 callsubr
          67 177 hstemhm
          23 644 hintmask 11011100
          346 817 -41 callsubr
          -5 -459 rmoveto
          7 24 rlineto
          hintmask 11101100
          -91 callgsubr
        </CharString>
        <CharString name="Adieresis">
          32 callsubr
          74 163 hstemhm
          135 322 callsubr
          hintmask 11011110
          486 728 -48 callsubr
          44 -466 rmoveto
          7 24 rlineto
          hintmask 11101110
          -91 callgsubr
        </CharString>
        <CharString name="Agrave">
          32 callsubr
          67 177 hstemhm
          23 644 hintmask 11011100
          406 721 110 callgsubr
          -23 -459 rmoveto
          7 24 rlineto
          hintmask 11101100
          -91 callgsubr
        </CharString>
        <CharString name="Amacron">
          32 callsubr
          107 99 hstemhm
          23 644 hintmask 11011100
          527 860 340 callgsubr
          -265 -499 rmoveto
          7 24 rlineto
          hintmask 11101100
          -91 callgsubr
        </CharString>
        <CharString name="Aogonek">
          73 -260 96 185 68 callsubr
          hstemhm
          428 116 hintmask 01101100
          257 262 rmoveto
          7 24 rlineto
          hintmask 11110100
          66 221 8 55 0 vvcurveto
          0 8 -55 66 -221 vhcurveto
          7 -24 rlineto
          18 412 rmoveto
          -194 hlineto
          -225 -674 rlineto
          161 hlineto
          41 138 rlineto
          236 hlineto
          41 -138 rlineto
          -38 -35 -31 -48 -60 -12 callsubr
          368 callsubr
          hvcurveto
          endchar
        </CharString>
        <CharString name="Aring">
          32 callsubr
          56 83 112 77 hstemhm
          213 83 106 83 hintmask 11011111
          349 905 53 callgsubr
          -87 -448 rmoveto
          7 24 rlineto
          hintmask 11101111
          -91 callgsubr
        </CharString>
        <CharString name="Atilde">
          32 callsubr
          87 103 -68 103 hstemhm
          23 644 hintmask 11011010
          471 887 154 callsubr
          hintmask 11010110
          -38 callgsubr
          hintmask 11101010
          149 callsubr
          -283 -564 rmoveto
          7 24 rlineto
          -91 callgsubr
        </CharString>
        <CharString name="B">
          -2 0 123 156 121 151 123 hstemhm
          65 154 178 157 -140 156 hintmask 11110100
          219 123 rmoveto
          156 82 vlineto
          86 27 -36 -42 -50 -36 -28 -78 hvcurveto
          -81 428 rmoveto
          hintmask 11111000
          82 hlineto
          67 29 -26 -45 -45 -38 -35 -83 hvcurveto
          -57 hlineto
          -154 274 rmoveto
          -674 291 vlineto
          hintmask 11110100
          135 79 79 104 94 -56 46 -61 18 hvcurveto
          hintmask 11111000
          59 19 42 57 71 vvcurveto
          101 -71 85 -156 vhcurveto
          endchar
        </CharString>
        <CharString name="C">
          290 callsubr
          hstem
          40 165 vstem
          563 645 94 callgsubr
        </CharString>
        <CharString name="CR">
          -607 endchar
        </CharString>
        <CharString name="Cacute">
          290 callsubr
          38 177 hstem
          40 165 vstem
          563 645 -74 callgsubr
          -259 224 -37 callsubr
          endchar
        </CharString>
        <CharString name="Ccaron">
          290 callsubr
          38 177 hstem
          40 165 vstem
          563 645 -74 callgsubr
          -141 224 -79 callsubr
          endchar
        </CharString>
        <CharString name="Ccedilla">
          6 -268 91 169 141 410 140 hstem
          40 165 139 104 vstem
          318 -51 rmoveto
          10 -13 16 -23 -26 vvcurveto
          -39 -26 -25 -49 vhcurveto
          -91 vlineto
          124 55 65 78 26 -5 29 -12 19 hvcurveto
          132 696 94 callgsubr
        </CharString>
        <CharString name="Ccircumflex">
          290 callsubr
          38 177 hstem
          40 165 vstem
          563 645 -74 callgsubr
          -277 401 -79 callgsubr
          endchar
        </CharString>
        <CharString name="Cdotaccent">
          290 callsubr
          46 163 hstem
          40 165 87 165 vstem
          292 811 rmoveto
          145 callsubr
          -69 callgsubr
          vhcurveto
          271 -166 94 callgsubr
        </CharString>
        <CharString name="D">
          76 0 126 421 127 hstem
          65 158 264 156 vstem
          223 126 rmoveto
          421 107 callgsubr
          -674 91 callsubr
        </CharString>
        <CharString name="Dcaron">
          76 0 126 421 127 481 callsubr
          158 264 156 vstem
          382 721 -79 callsubr
          -35 -595 rmoveto
          421 107 callgsubr
          -674 91 callsubr
        </CharString>
        <CharString name="Dcroat">
          21 callgsubr
        </CharString>
        <CharString name="Delta">
          74 0 124 438 112 0 -20 hstemhm
          35 611 hintmask 10110000
          198 124 rmoveto
          47 144 rlineto
          hintmask 11010000
          95 294 95 -294 47 -144 rlineto
          -43 550 rmoveto
          -194 hlineto
          -210 -573 rlineto
          -101 611 101 vlineto
          endchar
        </CharString>
        <CharString name="E">
          50 callsubr
          hstem
          65 155 vstem
          220 123 rmoveto
          153 -27 callsubr
          vlineto
          endchar
        </CharString>
        <CharString name="Eacute">
          50 callsubr
          481 callsubr
          155 vstem
          454 898 51 callgsubr
          -123 -598 rmoveto
          153 -27 callsubr
          vlineto
          endchar
        </CharString>
        <CharString name="Ebreve">
          50 callsubr
          43 92 hstemhm
          65 155 -134 358 callgsubr
          hintmask 11111010
          370 898 rmoveto
          -58 -36 -31 -50 vhcurveto
          hintmask 11110110
          -50 -36 31 58 hvcurveto
          37 callgsubr
          hintmask 11111010
          -262 -775 rmoveto
          153 -27 callsubr
          vlineto
          endchar
        </CharString>
        <CharString name="Ecaron">
          50 callsubr
          481 callsubr
          155 vstem
          341 721 -79 callsubr
          3 -445 rmoveto
          -27 callsubr
          -264 hlineto
          endchar
        </CharString>
        <CharString name="Ecircumflex">
          50 callsubr
          481 callsubr
          155 vstem
          272 817 -41 callsubr
          27 -445 rmoveto
          -27 callsubr
          -264 hlineto
          endchar
        </CharString>
        <CharString name="Edieresis">
          50 callsubr
          53 163 hstem
          65 155 103 166 vstem
          406 727 -48 callsubr
          82 -451 rmoveto
          -27 callsubr
          -264 hlineto
          endchar
        </CharString>
        <CharString name="Edotaccent">
          50 callsubr
          54 163 hstemhm
          65 155 -21 165 hintmask 11110100
          282 728 rmoveto
          -69 callgsubr
          145 callsubr
          hvcurveto
          hintmask 11101000
          -62 -605 rmoveto
          153 -27 callsubr
          vlineto
          endchar
        </CharString>
        <CharString name="Egrave">
          50 callsubr
          481 callsubr
          155 vstem
          346 721 110 callgsubr
          -5 -598 rmoveto
          153 -27 callsubr
          vlineto
          endchar
        </CharString>
        <CharString name="Emacron">
          50 callsubr
          90 99 hstem
          65 155 vstem
          450 863 340 callgsubr
          -230 -641 rmoveto
          153 -27 callsubr
          vlineto
          endchar
        </CharString>
        <CharString name="Eng">
          90 -197 133 85 223 callsubr
          hstem
          65 154 259 154 vstem
          478 674 rmoveto
          -279 vlineto
          -131 10 -74 0 vhcurveto
          0 -22 72 -75 133 vhcurveto
          -157 279 rlineto
          -169 -674 154 279 hlineto
          119 -15 90 0 vhcurveto
          0 27 -87 71 -122 vhcurveto
          161 -279 rlineto
          15 hlineto
          -44 -4 -26 -20 -41 hhcurveto
          -29 -27 10 13 -21 hvcurveto
          -136 vlineto
          -13 25 45 -7 37 hhcurveto
          120 72 72 125 3 hvcurveto
          674 vlineto
          endchar
        </CharString>
        <CharString name="Eogonek">
          -63 -260 96 164 123 153 122 153 123 hstemhm
          65 155 30 116 hintmask 01111000
          484 123 rmoveto
          -264 153 232 122 -232 153 260 123 -415 -674 hlineto
          hintmask 11111100
          264 hlineto
          -43 -35 -36 -48 -60 -12 callsubr
          368 callsubr
          hvcurveto
          endchar
        </CharString>
        <CharString name="Eth">
          21 callgsubr
        </CharString>
        <CharString name="Euro">
          15 -8 134 75 90 64 90 81 137 hstem
          116 153 vstem
          582 625 rmoveto
          24 -40 -41 14 -80 hhcurveto
          -129 -117 -75 -143 -43 hvcurveto
          -92 -90 76 hlineto
          -1 -11 0 -12 0 -12 0 -10 0 -9 -10 flex1
          -76 -90 93 hlineto
          -125 41 106 -84 146 hhcurveto
          88 35 17 18 33 hvcurveto
          148 vlineto
          -26 -32 -43 -23 -67 hhcurveto
          -63 -50 27 48 -29 hvcurveto
          179 90 -207 hlineto
          -1 9 0 9 10 vvcurveto
          12 1 12 1 12 vhcurveto
          206 90 -178 hlineto
          51 30 51 30 65 hhcurveto
          65 40 -22 -26 32 hvcurveto
          endchar
        </CharString>
        <CharString name="F">
          -101 357 callsubr
          174 123 hstem
          65 155 vstem
          476 551 rmoveto
          123 -411 -674 155 254 223 123 -223 174 vlineto
          endchar
        </CharString>
        <CharString name="G">
          99 -8 221 callgsubr
          308 callgsubr
          hintmask 11110100
          646 402 rmoveto
          hintmask 11111000
          -259 -131 hlineto
          hintmask 11110100
          23 callgsubr
          hintmask 11111000
          -9 callsubr
          hintmask 11110100
          279 callgsubr
        </CharString>
        <CharString name="Gbreve">
          99 -8 221 callgsubr
          31 92 hstemhm
          40 166 -26 112 95 223 -146 112 -80 150 hintmask 1111010100000000
          464 898 -7 callgsubr
          hintmask 1111100010000000
          70 -496 rmoveto
          hintmask 1111101000000000
          -259 -131 hlineto
          hintmask 1111100010000000
          23 callgsubr
          hintmask 1111101000000000
          -9 callsubr
          hintmask 1111100010000000
          279 callgsubr
        </CharString>
        <CharString name="Gcircumflex">
          99 -8 221 callgsubr
          35 177 308 callgsubr
          hintmask 11111010
          385 817 -41 callsubr
          340 -319 rmoveto
          hintmask 11111100
          -259 -131 hlineto
          hintmask 11111010
          23 callgsubr
          hintmask 11111100
          -9 callsubr
          hintmask 11111010
          279 callgsubr
        </CharString>
        <CharString name="Gdotaccent">
          99 -8 221 callgsubr
          42 163 hstemhm
          40 166 97 165 -81 223 -114 150 hintmask 11111101
          386 728 rmoveto
          -69 callgsubr
          145 callsubr
          hvcurveto
          hintmask 11111001
          260 -326 rmoveto
          hintmask 11111010
          -259 -131 hlineto
          hintmask 11111001
          23 callgsubr
          hintmask 11111010
          -9 callsubr
          hintmask 11111001
          279 callgsubr
        </CharString>
        <CharString name="H">
          79 21 -21 269 131 274 -20 hstem
          65 154 247 155 vstem
          466 674 264 callgsubr
        </CharString>
        <CharString name="Hbar">
          187 21 -21 269 131 95 82 -82 179 hstemhm
          119 154 247 155 hintmask 11011100
          520 400 rmoveto
          -247 95 247 hlineto
          hintmask 11101100
          229 82 rmoveto
          -74 hlineto
          hintmask 11011100
          97 -155 vlineto
          hintmask 11101100
          -97 -247 vlineto
          hintmask 11011100
          97 -154 vlineto
          hintmask 11101100
          -97 -74 vlineto
          hintmask 11011100
          -82 74 -495 154 269 247 -269 155 495 74 vlineto
          endchar
        </CharString>
        <CharString name="Hcircumflex">
          79 21 -21 269 131 274 -20 67 177 hstem
          65 154 247 155 vstem
          341 817 -41 callsubr
          204 -47 264 callgsubr
        </CharString>
        <CharString name="I">
          337 callsubr
          hstem
          75 154 vstem
          75 hmoveto
          153 callsubr
          endchar
        </CharString>
        <CharString name="IJ">
          65 -1 133 541 -20 21 -20 hstemhm
          75 154 229 154 hintmask 10111000
          75 hmoveto
          153 callsubr
          235 -655 rmoveto
          -13 25 45 -7 37 hhcurveto
          123 72 75 130 hvcurveto
          hintmask 11011000
          469 -154 -465 vlineto
          -53 -26 -23 -45 -29 -27 10 13 -21 vhcurveto
          endchar
        </CharString>
        <CharString name="Iacute">
          -303 172 callsubr
          75 154 vstem
          75 hmoveto
          153 callsubr
          19 47 -37 callsubr
          endchar
        </CharString>
        <CharString name="Ibreve">
          337 callsubr
          63 92 hstemhm
          -44 112 7 154 11 112 hintmask 11110100
          -44 898 -8 callsubr
          hintmask 11101000
          7 453 callsubr
        </CharString>
        <CharString name="Icircumflex">
          -303 172 callsubr
          75 154 vstem
          92 898 -79 callgsubr
          -141 453 callsubr
        </CharString>
        <CharString name="Idieresis">
          337 callsubr
          74 163 hstemhm
          -59 165 -31 154 -20 166 hintmask 11101000
          75 hmoveto
          153 callsubr
          hintmask 11110100
          -134 136 -29 callsubr
          endchar
        </CharString>
        <CharString name="Idotaccent">
          337 callsubr
          74 163 hstemhm
          71 165 -161 154 hintmask 11101000
          75 hmoveto
          153 callsubr
          hintmask 11110000
          -4 136 rmoveto
          145 callsubr
          -69 callgsubr
          vhcurveto
          endchar
        </CharString>
        <CharString name="Igrave">
          -303 172 callsubr
          75 154 vstem
          75 hmoveto
          153 callsubr
          47 224 144 callsubr
        </CharString>
        <CharString name="Imacron">
          337 callsubr
          106 99 hstem
          75 154 vstem
          75 hmoveto
          153 callsubr
          255 86 316 callgsubr
          endchar
        </CharString>
        <CharString name="Iogonek">
          -303 -260 96 185 223 callsubr
          hstemhm
          -5 116 -36 154 hintmask 11101000
          229 674 rmoveto
          -154 -673 hlineto
          hintmask 11110000
          -43 -35 -37 -49 -60 -12 callsubr
          hvcurveto
          hintmask 11101000
          368 callsubr
          vhcurveto
          endchar
        </CharString>
        <CharString name="Itilde">
          337 callsubr
          87 103 -68 103 hstemhm
          75 154 hintmask 11101000
          75 hmoveto
          153 callsubr
          195 213 154 callsubr
          hintmask 11011000
          -38 callgsubr
          hintmask 11101000
          149 callsubr
          endchar
        </CharString>
        <CharString name="J">
          -215 -1 133 541 -20 164 callsubr
          endchar
        </CharString>
        <CharString name="Jcircumflex">
          -215 -1 133 541 -20 68 177 164 callsubr
          165 743 -79 callgsubr
          endchar
        </CharString>
        <CharString name="K">
          55 398 callgsubr
          65 154 vstem
          65 hmoveto
          153 callsubr
          341 -337 284 callgsubr
        </CharString>
        <CharString name="L">
          -119 0 135 539 -20 hstem
          65 154 vstem
          219 135 rmoveto
          539 288 callgsubr
          vlineto
          endchar
        </CharString>
        <CharString name="Lacute">
          -119 0 135 539 -20 67 177 hstem
          65 154 vstem
          488 898 51 callgsubr
          -158 -47 415 callgsubr
        </CharString>
        <CharString name="Lcaron">
          -119 0 135 353 186 -186 211 hstemhm
          65 154 hintmask 10110000
          501 699 rmoveto
          -151 hlineto
          hintmask 11010000
          -71 -211 rlineto
          106 hlineto
          -166 186 415 callgsubr
        </CharString>
        <CharString name="Ldot">
          -101 0 135 177 163 199 -20 hstem
          65 154 87 165 vstem
          389 312 rmoveto
          -69 callgsubr
          145 callsubr
          hvcurveto
          -170 362 415 callgsubr
        </CharString>
        <CharString name="Lslash">
          -44 0 135 539 -20 hstem
          125 154 vstem
          279 135 rmoveto
          156 vlineto
          164 92 rlineto
          121 vlineto
          -164 -92 rlineto
          262 -154 -348 vlineto
          -80 -45 rlineto
          -121 vlineto
          80 45 rlineto
          -205 403 135 vlineto
          endchar
        </CharString>
        <CharString name="M">
          286 398 callgsubr
          50 793 vstem
          50 hmoveto
          154 hlineto
          21 261 rlineto
          5 70 4 69 58 vvcurveto
          0 14 -58 51 -139 vhcurveto
          94 -254 rlineto
          91 hlineto
          95 254 rlineto
          46 122 26 75 0 vvcurveto
          0 2 -76 11 -121 vhcurveto
          25 -261 rlineto
          154 hlineto
          -70 674 rlineto
          -169 hlineto
          -95 -244 rlineto
          -54 -138 -16 -66 0 vvcurveto
          0 -15 67 -53 137 vhcurveto
          -94 244 rlineto
          -169 hlineto
          endchar
        </CharString>
        <CharString name="N">
          90 398 callgsubr
          65 154 259 154 vstem
          102 callgsubr
          endchar
        </CharString>
        <CharString name="NULL">
          -607 endchar
        </CharString>
        <CharString name="Nacute">
          90 172 callsubr
          65 154 259 154 vstem
          302 721 -37 callsubr
          -323 -898 rmoveto
          -59 callgsubr
          endchar
        </CharString>
        <CharString name="Ncaron">
          90 172 callsubr
          65 154 259 154 vstem
          102 callgsubr
          350 47 -79 callsubr
          endchar
        </CharString>
        <CharString name="Ntilde">
          90 112 callsubr
          87 103 -68 103 hstemhm
          65 154 259 154 hintmask 11101100
          102 callgsubr
          413 213 26 callsubr
        </CharString>
        <CharString name="O">
          119 callgsubr
          hstem
          40 165 326 165 vstem
          83 callgsubr
          endchar
        </CharString>
        <CharString name="OE">
          393 -7 140 -133 123 153 122 147 140 -134 123 hstemhm
          40 165 316 145 hintmask 10110110
          363 133 rmoveto
          -100 -58 80 126 126 58 80 100 100 58 -80 -126 -126 -58 -80 -100 hvcurveto
          hintmask 01101110
          303 -10 rmoveto
          153 242 122 -242 153 270 123 -415 vlineto
          hintmask 10110110
          -39 vlineto
          32 -45 -53 18 -60 hhcurveto
          -200 -123 -140 -206 -207 122 -139 201 60 53 18 33 45 hvcurveto
          hintmask 01101110
          -44 419 123 vlineto
          endchar
        </CharString>
        <CharString name="Oacute">
          95 callsubr
          311 721 -37 callsubr
          -357 -559 -85 callgsubr
          endchar
        </CharString>
        <CharString name="Obreve">
          119 callgsubr
          32 92 hstemhm
          40 165 -22 358 callgsubr
          -48 165 hintmask 11101100
          183 898 -8 callsubr
          hintmask 11110010
          -90 -559 rmoveto
          126 63 80 100 100 63 -80 -126 -126 -63 -80 -100 -100 -63 80 126 vhcurveto
          -165 hmoveto
          -207 127 -139 201 200 128 140 206 207 -127 139 -201 -200 -128 -140 -206 vhcurveto
          endchar
        </CharString>
        <CharString name="Ocircumflex">
          95 callsubr
          205 339 rmoveto
          126 63 80 100 100 63 -80 -126 -126 -63 -80 -100 -100 -63 80 126 vhcurveto
          -165 hmoveto
          -207 127 -139 201 200 128 140 206 207 -127 139 -201 -200 -128 -140 -206 vhcurveto
          270 559 -79 callgsubr
          endchar
        </CharString>
        <CharString name="Odieresis">
          119 callgsubr
          43 163 hstemhm
          40 165 -45 322 callsubr
          -63 165 hintmask 11101100
          160 810 -29 callsubr
          hintmask 11110010
          -388 -471 -85 callgsubr
          endchar
        </CharString>
        <CharString name="Ograve">
          95 callsubr
          83 callgsubr
          147 559 144 callsubr
        </CharString>
        <CharString name="Ohungarumlaut">
          95 callsubr
          415 721 42 callsubr
          -274 -559 -85 callgsubr
          endchar
        </CharString>
        <CharString name="Omacron">
          119 callgsubr
          75 99 hstem
          40 165 326 165 vstem
          545 760 316 callgsubr
          -149 -421 -85 callgsubr
          endchar
        </CharString>
        <CharString name="Oslash">
          107 -7 132 428 132 hstem
          38 158 340 158 vstem
          519 445 rmoveto
          11 -29 6 -36 -41 vvcurveto
          -131 -66 -83 -104 -27 -24 5 10 -21 vhcurveto
          -80 90 rmoveto
          -12 30 -6 37 42 vvcurveto
          131 66 83 104 28 25 -6 -10 22 vhcurveto
          254 147 rmoveto
          -145 hlineto
          -25 -34 rlineto
          23 -46 -53 12 -60 hhcurveto
          -200 -128 -140 -206 -98 28 -82 51 -60 hvcurveto
          -78 -106 rlineto
          146 hlineto
          25 34 rlineto
          -22 45 52 -12 59 hhcurveto
          200 128 140 206 97 -28 82 -50 59 hvcurveto
          endchar
        </CharString>
        <CharString name="Otilde">
          119 callgsubr
          55 103 -68 103 hstemhm
          40 165 326 165 hintmask 11101100
          83 callgsubr
          287 547 26 callsubr
        </CharString>
        <CharString name="P">
          -44 21 -21 218 122 211 123 205 callgsubr
          219 340 rmoveto
          211 76 vlineto
          64 -4 33 -50 -46 vvcurveto
          -57 -33 -46 -64 -8 vhcurveto
          -230 334 rmoveto
          -674 154 218 78 vlineto
          133 118 77 156 127 -99 96 -152 hvcurveto
          endchar
        </CharString>
        <CharString name="Q">
          134 545 140 hstem
          40 165 326 165 vstem
          205 339 rmoveto
          126 63 80 100 100 63 -80 -126 -126 -63 -80 -100 -100 -63 80 126 vhcurveto
          533 -423 rmoveto
          -206 115 rlineto
          103 55 61 111 142 vvcurveto
          207 -127 139 -201 -200 -128 -140 -206 -206 125 -138 199 -2 vhcurveto
          199 -144 rlineto
          endchar
        </CharString>
        <CharString name="R">
          7 21 312 callsubr
          205 callgsubr
          219 549 11 callsubr
        </CharString>
        <CharString name="Racute">
          7 21 312 callsubr
          47 177 205 callgsubr
          466 898 51 callgsubr
          -136 -172 11 callsubr
        </CharString>
        <CharString name="Rcaron">
          7 21 312 callsubr
          47 177 205 callgsubr
          378 721 -79 callsubr
          -35 -172 11 callsubr
        </CharString>
        <CharString name="S">
          433 callgsubr
          hstem
          39 167 114 164 vstem
          454 644 -90 callgsubr
          endchar
        </CharString>
        <CharString name="Sacute">
          433 callgsubr
          43 177 hstem
          39 167 114 164 vstem
          202 721 -37 callsubr
          166 -254 -90 callgsubr
          endchar
        </CharString>
        <CharString name="Scaron">
          433 callgsubr
          43 177 hstem
          39 167 114 164 vstem
          454 644 -90 callgsubr
          -126 221 -79 callsubr
          endchar
        </CharString>
        <CharString name="Scircumflex">
          433 callgsubr
          43 177 hstem
          39 167 114 164 vstem
          454 644 -90 callgsubr
          -245 398 -79 callgsubr
          endchar
        </CharString>
        <CharString name="T">
          -63 21 -21 550 351 callsubr
          514 674 135 callgsubr
        </CharString>
        <CharString name="Tbar">
          -63 21 -21 272 113 165 351 callsubr
          514 550 rmoveto
          124 -484 -124 165 -165 -110 -113 110 -272 155 272 110 113 -110 165 vlineto
          endchar
        </CharString>
        <CharString name="Tcaron">
          -63 21 -21 550 124 482 callgsubr
          195 155 vstem
          334 721 -79 callsubr
          304 -47 135 callgsubr
        </CharString>
        <CharString name="Thorn">
          -44 21 -21 110 122 209 123 110 -20 205 callgsubr
          219 232 rmoveto
          209 66 vlineto
          84 23 -58 -47 -57 -32 -47 -75 hvcurveto
          -66 332 rmoveto
          110 -154 -674 154 110 78 vlineto
          133 118 76 156 127 -99 95 -152 hvcurveto
          endchar
        </CharString>
        <CharString name="U">
          175 callgsubr
          hstem
          60 154 240 154 vstem
          454 260 5 callgsubr
        </CharString>
        <CharString name="Uacute">
          175 callgsubr
          67 177 hstem
          60 154 240 154 vstem
          287 721 -37 callsubr
          81 -638 5 callgsubr
        </CharString>
        <CharString name="Ubreve">
          175 callgsubr
          63 92 hstemhm
          60 154 -82 358 callgsubr
          -74 154 hintmask 11101100
          132 898 -8 callsubr
          hintmask 11110010
          210 -638 5 callgsubr
        </CharString>
        <CharString name="Ucircumflex">
          175 callgsubr
          67 177 hstem
          60 154 240 154 vstem
          454 260 -83 callgsubr
          -184 224 -79 callgsubr
          endchar
        </CharString>
        <CharString name="Udieresis">
          175 callgsubr
          73 163 hstemhm
          60 154 -92 322 callsubr
          -102 154 hintmask 11110010
          122 809 rmoveto
          145 callsubr
          vhcurveto
          hintmask 11101010
          47 35 36 46 45 -35 36 -47 hvcurveto
          hintmask 11110010
          146 callgsubr
          hvcurveto
          hintmask 11110100
          268 hmoveto
          145 callsubr
          vhcurveto
          hintmask 11110010
          47 36 36 46 45 -36 36 -47 hvcurveto
          hintmask 11110100
          146 callgsubr
          hvcurveto
          hintmask 11110010
          64 -549 5 callgsubr
        </CharString>
        <CharString name="Ugrave">
          175 callgsubr
          67 177 hstem
          60 154 240 154 vstem
          454 260 -83 callgsubr
          -138 224 144 callsubr
        </CharString>
        <CharString name="Uhungarumlaut">
          175 callgsubr
          67 177 hstem
          60 154 240 154 vstem
          454 260 -83 callgsubr
          -77 47 42 callsubr
          endchar
        </CharString>
        <CharString name="Umacron">
          175 callgsubr
          106 99 hstem
          60 154 240 154 vstem
          454 260 -83 callgsubr
          66 86 316 callgsubr
          endchar
        </CharString>
        <CharString name="Uogonek">
          61 -252 96 171 -21 680 -20 hstemhm
          60 154 0 116 124 154 hintmask 11110100
          454 674 rmoveto
          -414 vlineto
          -102 -54 -28 -66 -63 -57 28 97 vhcurveto
          419 -154 -420 vlineto
          -152 88 -88 129 -20 vhcurveto
          hintmask 11101100
          -35 -34 -28 -43 -52 -12 callsubr
          368 callsubr
          hvcurveto
          98 34 62 85 134 vvcurveto
          413 vlineto
          endchar
        </CharString>
        <CharString name="Uring">
          175 callgsubr
          56 83 112 77 hstemhm
          60 154 -14 83 106 83 -18 154 hintmask 11110110
          200 846 178 callsubr
          hintmask 11111001
          171 -589 5 callgsubr
        </CharString>
        <CharString name="Utilde">
          175 callgsubr
          86 103 -68 103 hstemhm
          60 154 240 154 hintmask 11101100
          454 260 -83 callgsubr
          12 212 26 callsubr
        </CharString>
        <CharString name="V">
          52 398 callgsubr
          19 621 vstem
          640 674 rmoveto
          -164 hlineto
          -81 -269 rlineto
          -49 -162 -16 -104 0 vvcurveto
          0 -15 104 -49 162 vhcurveto
          -81 269 rlineto
          -166 hlineto
          224 -674 -56 callsubr
          endchar
        </CharString>
        <CharString name="W">
          364 398 callgsubr
          19 933 vstem
          431 664 -88 callsubr
          endchar
        </CharString>
        <CharString name="Wacute">
          364 172 callsubr
          19 933 vstem
          431 664 -88 callsubr
          -102 57 -37 callsubr
          endchar
        </CharString>
        <CharString name="Wcircumflex">
          364 172 callsubr
          19 933 vstem
          431 664 -88 callsubr
          -115 234 -79 callgsubr
          endchar
        </CharString>
        <CharString name="Wdieresis">
          364 112 callsubr
          74 163 hstem
          272 322 callsubr
          vstem
          431 664 -88 callsubr
          -5 146 rmoveto
          145 callsubr
          71 callgsubr
          vhcurveto
          -268 hmoveto
          145 callsubr
          -69 callgsubr
          vhcurveto
          endchar
        </CharString>
        <CharString name="Wgrave">
          364 172 callsubr
          19 933 vstem
          460 898 71 callsubr
          -115 -57 -88 callsubr
          endchar
        </CharString>
        <CharString name="X">
          56 398 callgsubr
          27 609 vstem
          240 342 rmoveto
          -213 -342 rlineto
          186 hlineto
          39 70 40 68 39 72 122 -210 rcurveline
          183 hlineto
          -217 341 204 333 rlineto
          -188 hlineto
          -35 -65 -37 -66 -35 -66 -112 197 rcurveline
          -179 hlineto
          endchar
        </CharString>
        <CharString name="Y">
          36 398 callgsubr
          243 154 vstem
          630 674 -1 callgsubr
        </CharString>
        <CharString name="Yacute">
          36 172 callsubr
          243 154 vstem
          507 898 51 callgsubr
          234 -47 -1 callgsubr
        </CharString>
        <CharString name="Ycircumflex">
          36 172 callsubr
          243 154 vstem
          321 817 -41 callsubr
          388 -47 -1 callgsubr
        </CharString>
        <CharString name="Ydieresis">
          36 112 callsubr
          73 163 hstemhm
          112 165 -34 154 -17 166 hintmask 11110100
          463 727 -48 callsubr
          435 -53 rmoveto
          -179 hlineto
          -44 -98 rlineto
          -78 -171 -10 -45 0 vvcurveto
          0 -14 45 -71 171 vhcurveto
          -41 98 rlineto
          -180 hlineto
          hintmask 11101000
          230 -427 rlineto
          -247 154 248 vlineto
          endchar
        </CharString>
        <CharString name="Ygrave">
          36 172 callsubr
          243 154 vstem
          386 721 110 callgsubr
          365 -47 -1 callgsubr
        </CharString>
        <CharString name="Z">
          347 callsubr
          hstem
          60 501 vstem
          549 674 48 callsubr
          endchar
        </CharString>
        <CharString name="Zacute">
          347 callsubr
          482 callgsubr
          60 501 vstem
          272 721 -37 callsubr
          191 -224 48 callsubr
          endchar
        </CharString>
        <CharString name="Zcaron">
          347 callsubr
          482 callgsubr
          60 501 vstem
          549 674 48 callsubr
          -167 156 -79 callsubr
          endchar
        </CharString>
        <CharString name="Zdotaccent">
          347 callsubr
          54 163 hstem
          246 165 vstem
          549 674 48 callsubr
          -303 245 rmoveto
          145 callsubr
          -69 callgsubr
          vhcurveto
          endchar
        </CharString>
        <CharString name="a">
          67 callsubr
          404 callgsubr
          124 150 hintmask 10111100
          311 208 -93 callsubr
          hintmask 01111100
          -22 callsubr
        </CharString>
        <CharString name="aacute">
          136 callgsubr
          426 731 51 callgsubr
          -4 -346 -93 callsubr
          hintmask 01111110
          -22 callsubr
        </CharString>
        <CharString name="abreve">
          67 callsubr
          33 92 404 callgsubr
          -128 112 140 150 -118 112 hintmask 1011101010000000
          343 730 -7 callgsubr
          hintmask 1011110100000000
          -144 -522 -93 callsubr
          hintmask 0111100100000000
          -22 callsubr
        </CharString>
        <CharString name="acircumflex">
          136 callgsubr
          256 650 -41 callsubr
          134 -346 -93 callsubr
          hintmask 01111110
          -22 callsubr
        </CharString>
        <CharString name="acute">
          396 callgsubr
          134 232 vstem
          134 621 -37 callsubr
          endchar
        </CharString>
        <CharString name="adieresis">
          67 callsubr
          45 163 404 callgsubr
          -139 165 98 150 -145 166 hintmask 1011101010000000
          399 561 -48 callsubr
          hintmask 1011110100000000
          180 -353 -93 callsubr
          hintmask 0111100100000000
          -22 callsubr
        </CharString>
        <CharString name="ae">
          201 -5 113 -112 104 96 104 -92 90 99 119 -115 111 hstemhm
          40 152 440 136 hintmask 01100111
          316 171 rmoveto
          -43 -23 -28 -42 -40 -19 18 33 vhcurveto
          hintmask 01010111
          33 27 24 50 vhcurveto
          47 hlineto
          hintmask 01100111
          316 92 rmoveto
          -176 hlineto
          69 13 42 32 43 hhcurveto
          56 18 -40 -50 4 hvcurveto
          128 -115 rmoveto
          3 21 5 36 22 vvcurveto
          162 -89 75 -131 -66 -60 -26 -44 -31 vhcurveto
          hintmask 01011011
          44 -21 -55 30 -73 hhcurveto
          -79 -54 -17 -17 -30 hvcurveto
          -131 vlineto
          25 38 55 21 59 hhcurveto
          65 20 -26 -38 hvcurveto
          -35 -64 vlineto
          -144 -68 -60 -94 -88 62 -60 116 105 51 50 42 18 hvcurveto
          hintmask 10100111
          -67 40 86 -26 67 hhcurveto
          52 64 11 23 36 hvcurveto
          122 vlineto
          -24 -32 -42 -19 -60 hhcurveto
          -68 -53 31 57 -21 hvcurveto
          endchar
        </CharString>
        <CharString name="agrave">
          136 callgsubr
          326 554 110 callgsubr
          106 -346 -93 callsubr
          hintmask 01111110
          -22 callsubr
        </CharString>
        <CharString name="amacron">
          67 callsubr
          77 99 404 callgsubr
          124 150 hintmask 10111110
          436 692 340 callgsubr
          -125 -385 -93 callsubr
          hintmask 01111110
          -22 callsubr
        </CharString>
        <CharString name="ampersand">
          135 -8 120 -112 123 -123 301 -280 -21 569 119 hstemhm
          50 149 -75 148 144 147 -26 131 hintmask 1000101100000000
          425 130 rmoveto
          -12 -28 -31 -6 -30 hhcurveto
          hintmask 1000110100000000
          -79 -58 32 45 34 14 27 65 23 hvcurveto
          7 -7 7 -6 6 -6 rrcurveto
          hintmask 1000101100000000
          41 315 rmoveto
          47 30 -27 -50 -29 -13 -38 -62 -34 hvcurveto
          -36 36 -33 38 39 vvcurveto
          44 31 21 36 vhcurveto
          hintmask 0001101010000000
          398 -569 rmoveto
          hintmask 0100101010000000
          -125 123 rlineto
          hintmask 0010101010000000
          36 50 20 61 67 vvcurveto
          -131 hlineto
          -33 -7 -28 -11 -24 vhcurveto
          -98 96 rlineto
          hintmask 1000101100000000
          103 52 39 60 76 vvcurveto
          119 -85 69 -139 -118 -97 -62 -124 -58 31 -49 37 -41 vhcurveto
          hintmask 1000110100000000
          -105 -34 -37 -58 -78 vvcurveto
          -102 102 -90 183 70 62 17 30 52 vhcurveto
          hintmask 0001101100000000
          39 -39 rlineto
          endchar
        </CharString>
        <CharString name="aogonek">
          -96 -260 96 161 103 -79 -21 208 90 99 119 404 callgsubr
          40 116 -32 150 hintmask 10111001
          311 208 rmoveto
          hintmask 11011101
          -37 vlineto
          -43 -23 -28 -42 -40 -19 18 33 33 27 24 50 vhcurveto
          197 117 rmoveto
          131 -71 60 -143 -79 -64 -17 -17 -30 vhcurveto
          -131 vlineto
          25 38 55 21 59 hhcurveto
          65 20 -26 -38 hvcurveto
          -35 -64 vlineto
          -144 -68 -60 -94 -81 55 -66 102 74 36 33 32 16 hvcurveto
          -52 vlineto
          hintmask 10111010
          -48 -36 -43 -52 -65 -12 callsubr
          hvcurveto
          hintmask 10111001
          368 callsubr
          vhcurveto
          endchar
        </CharString>
        <CharString name="approxequal">
          -18 156 119 -74 119 40 119 -74 119 hstemhm
          21 544 hintmask 10011000
          473 329 234 callgsubr
          hintmask 10101000
          467 callgsubr
          -92 278 234 callgsubr
          hintmask 01101000
          467 callgsubr
          endchar
        </CharString>
        <CharString name="aring">
          67 callsubr
          27 83 112 77 404 callgsubr
          -63 83 104 150 -148 83 hintmask 1011110101000000
          260 738 53 callgsubr
          hintmask 1011011010000000
          51 -335 -93 callsubr
          hintmask 0111010110000000
          -22 callsubr
        </CharString>
        <CharString name="asciicircum">
          -116 332 262 hstem
          33 425 vstem
          458 332 rmoveto
          -151 262 rlineto
          -123 hlineto
          -151 -262 rlineto
          135 hlineto
          78 146 77 -146 rlineto
          endchar
        </CharString>
        <CharString name="asciitilde">
          47 189 131 -82 131 hstemhm
          28 597 hintmask 10100000
          524 379 rmoveto
          -35 -30 -25 -24 -48 hhcurveto
          hintmask 01100000
          -62 -41 49 -118 hhcurveto
          -76 -63 -62 -47 -33 hvcurveto
          101 -80 rlineto
          35 30 25 23 48 hhcurveto
          hintmask 10100000
          76 37 -49 107 hhcurveto
          84 56 62 47 33 hvcurveto
          endchar
        </CharString>
        <CharString name="asterisk">
          -99 674 -20 hstem
          196 118 vstem
          339 428 rmoveto
          15 16 2 6 19 hvcurveto
          92 30 -36 112 -94 -30 -18 -6 -14 -7 -12 -9 rlinecurve
          4 14 3 17 19 vvcurveto
          98 -118 -98 vlineto
          -19 3 -17 4 -14 vhcurveto
          -12 9 -15 8 -18 6 -93 30 rcurveline
          -37 -112 94 -31 rlineto
          -6 17 17 -3 15 hhcurveto
          -13 -10 -12 -12 -10 -13 -58 -79 rcurveline
          95 -70 59 80 11 15 8 14 5 13 rlinecurve
          4 -14 7 -14 11 -15 57 -79 rcurveline
          96 69 -58 80 -11 15 -13 12 -12 9 rlinecurve
          endchar
        </CharString>
        <CharString name="at">
          370 -216 118 98 113 -112 104 235 104 109 118 hstemhm
          40 128 91 128 189.5 115.5 -103 115.5 117.5 120 hintmask 1011111101000000
          476 105 rmoveto
          -46 -43 38 64 88 49 45 52 41 40 -30 -66 8 hvcurveto
          -13 -1 -14 -13 vvcurveto
          -67 -14 -45 -32 -41 hhcurveto
          192 -157 rmoveto
          -31 -65 -75 -15 -61 hhcurveto
          -162 -137 107 187 182 133 175 213 168 140 -87 -199 hvcurveto
          hintmask 1101111101000000
          -97 -33 -57 -46 -28 -23 24 84 26 4 55 8 120 vhcurveto
          hintmask 1011111011000000
          1 20 rlineto
          -116 hlineto
          -1 -24 -2 -23 -2 -24 rrcurveto
          50 -27 -43 23 -50 hhcurveto
          -106 -99 -87 -144 -114 63 -98 112 66 58 35 73 28 hvcurveto
          hintmask 1101111011000000
          -59 19 46 -50 88 hhcurveto
          110 93 117 160 246 -201 148 -222 -261 -218 -207 -264 -221 150 -195 278 58 73 12 29 65 hvcurveto
          endchar
        </CharString>
        <CharString name="atilde">
          67 callsubr
          58 103 -68 103 -35 -20 404 callgsubr
          124 150 hintmask 1011100010000000
          380 720 154 callsubr
          hintmask 1011010010000000
          -38 callgsubr
          hintmask 1011100010000000
          36 24 -35 60 hhcurveto
          hintmask 1011001110000000
          63 47 33 52 26 hvcurveto
          -143 -451 -93 callsubr
          hintmask 0111100010000000
          -22 callsubr
        </CharString>
        <CharString name="b">
          4 253 callgsubr
          hstemhm
          60 146 222 148 hintmask 10111000
          318 116 rmoveto
          -66 -46 55 88 90 57 43 56 58 51 -48 -92 -84 -50 -52 -60 hvcurveto
          -112 591 440 callsubr
          hintmask 01111000
          -707 146 vlineto
          hintmask 10111000
          79 vlineto
          -60 36 57 -25 59 hhcurveto
          138 80 125 136 165 -96 93 -123 -60 -56 -27 -57 -35 hvcurveto
          endchar
        </CharString>
        <CharString name="backslash">
          -143 -103 810 hstem
          -45 511 vstem
          107 707 rmoveto
          -152 hlineto
          360 -810 rlineto
          151 hlineto
          endchar
        </CharString>
        <CharString name="bar">
          -327 -194 889 hstem
          70 140 vstem
          70 -194 rmoveto
          140 889 -140 hlineto
          endchar
        </CharString>
        <CharString name="braceleft">
          383 callgsubr
          130 143 -131 143 hintmask 11101000
          40 325 rmoveto
          -141 vlineto
          0 7 1 10 55 30 -50 -47 vhcurveto
          hintmask 11110000
          -34 -12 -38 -42 vvcurveto
          -104 66 -76 93 21 22 4 8 23 vhcurveto
          135 vlineto
          -6 -10 -11 -3 -10 hhcurveto
          -27 -24 22 33 hvcurveto
          hintmask 11101000
          28 12 43 44 vvcurveto
          85 -56 60 -60 8 vhcurveto
          60 8 56 59 85 vvcurveto
          hintmask 11110000
          44 -12 43 28 vvcurveto
          33 24 22 27 10 11 -3 -6 10 vhcurveto
          135 vlineto
          8 -23 -22 4 -21 hhcurveto
          -93 -66 -76 -104 hvcurveto
          hintmask 11101000
          -42 12 -38 -34 vvcurveto
          -47 -30 -49 -55 vhcurveto
          endchar
        </CharString>
        <CharString name="braceright">
          383 callgsubr
          95 143 -131 143 hintmask 11110000
          323 325 rmoveto
          -55 -30 49 47 hvcurveto
          hintmask 11101000
          34 12 38 42 vvcurveto
          104 -66 76 -93 -21 -22 -4 -8 -23 vhcurveto
          -135 vlineto
          6 10 11 3 10 hhcurveto
          27 24 -22 -33 hvcurveto
          hintmask 11110000
          -28 -12 -43 -44 vvcurveto
          -85 56 -59 60 -8 vhcurveto
          -60 -8 -56 -60 -85 vvcurveto
          hintmask 11101000
          -44 12 -43 -28 vvcurveto
          -33 -24 -22 -27 -10 -11 3 6 -10 vhcurveto
          -135 vlineto
          -8 23 22 -4 21 hhcurveto
          93 66 76 104 hvcurveto
          hintmask 11110000
          42 -12 38 34 vvcurveto
          47 30 50 55 10 7 -1 0 vhcurveto
          141 vlineto
          endchar
        </CharString>
        <CharString name="bracketleft">
          466 callgsubr
          65 138 vstem
          348 580 rmoveto
          127 -283 -903 283 128 -145 648 vlineto
          endchar
        </CharString>
        <CharString name="bracketright">
          466 callgsubr
          160 138 vstem
          298 707 rmoveto
          -283 -127 145 -648 -145 -128 283 hlineto
          endchar
        </CharString>
        <CharString name="breve">
          -107 617 92 hstem
          52 358 callgsubr
          vstem
          52 798 -8 callsubr
          endchar
        </CharString>
        <CharString name="brokenbar">
          -327 -117 338 148 338 hstem
          70 140 vstem
          210 369 rmoveto
          338 -140 -338 vlineto
          140 -486 rmoveto
          338 -140 -338 vlineto
          endchar
        </CharString>
        <CharString name="bullet">
          -182 223 266 hstem
          80 265 vstem
          80 356 rmoveto
          -75 56 -58 77 74 58 58 75 75 -58 58 -75 -76 -56 -58 -75 vhcurveto
          endchar
        </CharString>
        <CharString name="c">
          256 callsubr
          hstem
          35 148 vstem
          183 252 rmoveto
          126 callgsubr
          125 vlineto
          -60 callgsubr
          endchar
        </CharString>
        <CharString name="cacute">
          256 callsubr
          38 177 hstem
          35 148 vstem
          237 553 -37 callsubr
          -140 -478 rmoveto
          126 callgsubr
          125 vlineto
          -60 callgsubr
          endchar
        </CharString>
        <CharString name="caron">
          396 callgsubr
          32 436 vstem
          312 621 -79 callsubr
          endchar
        </CharString>
        <CharString name="ccaron">
          256 callsubr
          38 177 hstem
          35 148 vstem
          439 486 rmoveto
          -60 callgsubr
          126 callgsubr
          -102 192 -79 callsubr
          endchar
        </CharString>
        <CharString name="ccedilla">
          -138 -268 91 169 119 283 121 hstem
          35 148 82 104 vstem
          183 252 rmoveto
          126 callgsubr
          125 vlineto
          -60 callgsubr
          186 -377 26 callgsubr
        </CharString>
        <CharString name="ccircumflex">
          256 callsubr
          39 177 hstem
          35 148 vstem
          439 486 rmoveto
          -60 callgsubr
          126 callgsubr
          -231 370 -79 callgsubr
          endchar
        </CharString>
        <CharString name="cdotaccent">
          256 callsubr
          46 163 hstemhm
          35 148 22 165 hintmask 11110000
          183 252 rmoveto
          126 callgsubr
          125 vlineto
          -60 callgsubr
          hintmask 11111000
          22 391 rmoveto
          145 callsubr
          -69 callgsubr
          vhcurveto
          endchar
        </CharString>
        <CharString name="cedilla">
          -107 -268 91 hstem
          235 104 vstem
          339 -125 26 callgsubr
        </CharString>
        <CharString name="cent">
          -129 -111 222 -93 -21 22 -21 396 226 hstemhm
          30 148 59 122 hintmask 00111100
          438 483 rmoveto
          -27 14 -26 8 -26 5 rrcurveto
          110 -122 -112 vlineto
          -130 -26 -75 -104 -2 -126 rrcurveto
          hintmask 01011100
          -134 87 -97 121 -24 vhcurveto
          hintmask 10011100
          -108 121 vlineto
          hintmask 00111100
          109 vlineto
          29 5 27 9 23 12 rrcurveto
          hintmask 10011100
          122 vlineto
          -23 -38 -43 -12 -40 hhcurveto
          -79 -55 52 89 -5 hvcurveto
          95 1 63 47 78 hhcurveto
          40 43 -11 -22 35 hvcurveto
          endchar
        </CharString>
        <CharString name="circumflex">
          396 callgsubr
          32 436 vstem
          188 798 -79 callgsubr
          endchar
        </CharString>
        <CharString name="colon">
          -321 0 176 155 176 hstem
          55 176 vstem
          55 419 rmoveto
          218 callgsubr
          -331 vmoveto
          218 callgsubr
          endchar
        </CharString>
        <CharString name="comma">
          -313 -127 261 hstem
          -7 262 vstem
          -7 -127 145 callgsubr
        </CharString>
        <CharString name="commaaccent">
          -124 -262 211 hstem
          139 222 vstem
          139 -262 432 callgsubr
        </CharString>
        <CharString name="copyright">
          154 -8 96 83 92 149 94 79 98 hstem
          35 97 89 113 295 97 vstem
          35 338 rmoveto
          -191 155 -155 191 190 155 155 191 190 -155 155 -190 -191 -155 -155 -190 vhcurveto
          97 -1 rmoveto
          143 105 105 144 143 105 -105 -143 -145 -105 -104 -143 -144 -105 104 145 vhcurveto
          202 hmoveto
          53 1 40 22 32 hhcurveto
          28 28 -7 -15 24 hvcurveto
          94 vlineto
          17 -32 -31 5 -27 hhcurveto
          -108 -67 -70 -99 -1 hvcurveto
          -103 82 -63 88 35 35 7 14 26 vhcurveto
          95 vlineto
          -16 -26 -29 -8 -27 hhcurveto
          -36 -32 26 48 -3 hvcurveto
          endchar
        </CharString>
        <CharString name="currency">
          -36 90 114 214 113 hstem
          58 122 212 122 vstem
          58 311 rmoveto
          -40 11 -40 18 -32 vhcurveto
          -59 -57 85 -82 58 57 rlineto
          -18 34 39 -9 42 hhcurveto
          42 38 9 17 33 hvcurveto
          59 -56 85 82 -59 57 rlineto
          18 32 12 40 40 vvcurveto
          40 -12 39 -17 31 vhcurveto
          58 57 -85 82 -58 -56 rlineto
          17 -33 -39 10 -42 hhcurveto
          -43 -39 -10 -18 -33 hvcurveto
          -58 57 -85 -82 58 -57 rlineto
          -17 -31 -11 -40 -39 vvcurveto
          122 hmoveto
          57 43 50 63 63 43 -50 -57 -57 -43 -50 -63 -63 -43 50 57 vhcurveto
          endchar
        </CharString>
        <CharString name="d">
          4 253 callgsubr
          438 callsubr
          hintmask 10111000
          86 callgsubr
          112 591 rmoveto
          -278 vlineto
          132 callsubr
          hintmask 01111000
          -79 146 707 vlineto
          endchar
        </CharString>
        <CharString name="dagger">
          -48 21 -21 405 118 151 -20 hstem
          214 130 vstem
          529 523 rmoveto
          407 callsubr
          -405 130 405 185 hlineto
          endchar
        </CharString>
        <CharString name="daggerdbl">
          -18 21 -21 151 118 136 118 151 -20 hstem
          229 130 vstem
          544 405 rmoveto
          118 407 callsubr
          -136 -184 -118 184 -151 130 151 185 118 -185 136 vlineto
          endchar
        </CharString>
        <CharString name="dcaron">
          138 253 callgsubr
          -16 211 438 callsubr
          hintmask 10101100
          86 callgsubr
          112 313 rmoveto
          132 callsubr
          hintmask 01011100
          -79 146 707 -146 vlineto
          265 1 rmoveto
          -71 -211 rlineto
          106 hlineto
          116 211 rlineto
          endchar
        </CharString>
        <CharString name="dcroat">
          4 253 callgsubr
          51 82 438 callsubr
          hintmask 10111100
          86 callgsubr
          315 530 rmoveto
          -57 61 -146 -61 -151 -82 151 -135 hlineto
          132 callsubr
          hintmask 01111100
          -79 146 564 57 vlineto
          endchar
        </CharString>
        <CharString name="degree">
          -167 305 102 176 102 hstem
          30 102 176 102 vstem
          30 495 rmoveto
          -105 85 -85 105 105 85 85 105 105 -85 85 -105 -105 -85 -85 -105 vhcurveto
          102 hmoveto
          48 40 40 48 48 40 -40 -48 -48 -40 -40 -48 -48 -40 40 48 vhcurveto
          endchar
        </CharString>
        <CharString name="dieresis">
          -107 628 163 hstem
          33 322 callsubr
          vstem
          33 710 -29 callsubr
          endchar
        </CharString>
        <CharString name="divide">
          -18 214 152 vstem
          214 516 343 callgsubr
          -169 -241 rmoveto
          499 130 -499 hlineto
          169 -241 343 callgsubr
          endchar
        </CharString>
        <CharString name="dollar">
          -93 -118 241 -107 -21 24 -21 549 243 -117 -20 22 -20 hstemhm
          34 167 -23 121 -72 122 -34 164 hintmask 0010100010000000
          449 644 rmoveto
          -31 14 -35 10 -34 5 rrcurveto
          hintmask 0011000010000000
          117 -122 vlineto
          hintmask 0010010010000000
          -115 vlineto
          hintmask 1000011001000000
          -123 -15 -70 -75 -101 vvcurveto
          -108 73 -50 71 -33 vhcurveto
          77 -36 60 -18 -49 vvcurveto
          -40 -35 -27 -46 -63 -65 18 48 -66 vhcurveto
          hintmask 0100011010000000
          -155 vlineto
          hintmask 0100010100000000
          37 -21 49 -13 52 -5 rrcurveto
          hintmask 1000010100000000
          -113 121 vlineto
          hintmask 0010010100000000
          116 vlineto
          hintmask 0011001001000000
          111 21 69 75 102 vvcurveto
          123 -94 48 -84 37 vhcurveto
          -57 25 -43 24 37 vvcurveto
          32 26 25 54 vhcurveto
          hintmask 0011000010000000
          57 61 -18 -29 50 hvcurveto
          endchar
        </CharString>
        <CharString name="dotaccent">
          -107 629 163 hstem
          167 165 vstem
          167 711 rmoveto
          145 callsubr
          -69 callgsubr
          vhcurveto
          endchar
        </CharString>
        <CharString name="dotlessi">
          440 callgsubr
          341 callgsubr
          141 callsubr
          endchar
        </CharString>
        <CharString name="dvMatraAA_Candrabindu">
          -67 callgsubr
          62 495 callsubr
          -15 140 hstemhm
          -90 136 24 141 -135 140 28 136 hintmask 1101011010000000
          147 733 230 callsubr
          hintmask 1110001010000000
          -52 -38 -37 -59 vhcurveto
          hintmask 1101011000000000
          -62 -39 320 callsubr
          hintmask 1101011010000000
          -126 98 -63 139 vhcurveto
          hintmask 1100100100000000
          -71 244 123 callgsubr
          hintmask 1101001000000000
          -106 -418 rmoveto
          100 -84 callsubr
          -341 hlineto
          endchar
        </CharString>
        <CharString name="dvMatraAI_Candrabindu">
          394 callsubr
          -95 495 callsubr
          -42 104 -77 140 hstemhm
          -123 348 callgsubr
          hintmask 1000011110000000
          113 907 rmoveto
          39 31 31 39 39 -31 31 -39 -39 -31 -31 -39 -39 31 -31 39 hvcurveto
          hintmask 1000101010000000
          -590 -37 363 callgsubr
          hintmask 1100001010000000
          -47 callgsubr
          hintmask 1000101010000000
          261 callgsubr
          hintmask 1001001010000000
          688 -53 rmoveto
          hintmask 1010001010000000
          -52 -38 -37 -59 vhcurveto
          hintmask 1001001010000000
          -62 -39 243 callsubr
          98 -63 139 123 110 69 120 vhcurveto
          endchar
        </CharString>
        <CharString name="dvMatraE_Candrabindu">
          -607 733 495 callsubr
          -112 115 -18 140 hstemhm
          -132 348 callgsubr
          hintmask 00101010
          45 callsubr
          hintmask 01001010
          532 -185 230 callsubr
          hintmask 10001010
          -52 -38 -37 -59 vhcurveto
          hintmask 01001010
          -62 -39 243 callsubr
          98 -63 139 vhcurveto
          hintmask 00011110
          -71 244 123 callgsubr
          endchar
        </CharString>
        <CharString name="dvSHA_MatraVocalicR">
          163 -271 108 722 112 -105 115 hstemhm
          96 140 118 140 -45 141 -32 142 hintmask 00111010
          296 566 rmoveto
          37 21 -33 -37 -41 -20 -28 -26 -20 hvcurveto
          -56 34 -16 32 33 vvcurveto
          36 23 24 37 vhcurveto
          hintmask 01001010
          404 -7 rmoveto
          100 112 -242 -359 hlineto
          -48 14 -41 12 -35 13 rrcurveto
          34 36 26 53 63 vvcurveto
          hintmask 00111010
          108 -86 70 -115 -121 -76 -80 -91 -71 33 -59 70 -51 vhcurveto
          -199 -117 112 -84 215 132 63 -26 76 -23 92 -22 rlinecurve
          -169 vlineto
          hintmask 11000100
          469 callgsubr
          53 43 12 14 31 vhcurveto
          109 vlineto
          -14 -24 -45 -13 -41 hhcurveto
          -44 -28 20 36 hvcurveto
          hintmask 01000010
          44 40 27 70 vhcurveto
          endchar
        </CharString>
        <CharString name="e">
          119 callsubr
          hstem
          353 136 vstem
          353 300 -99 callsubr
        </CharString>
        <CharString name="eacute">
          119 callsubr
          41 350 callsubr
          457 730 51 callgsubr
          7 -253 -99 callsubr
        </CharString>
        <CharString name="ebreve">
          119 callsubr
          38 92 hstemhm
          72 112 169 136 -133 112 hintmask 11111010
          356 731 -7 callgsubr
          hintmask 11111100
          -115 -431 -99 callsubr
        </CharString>
        <CharString name="ecaron">
          119 callsubr
          41 350 callsubr
          334 553 -79 callsubr
          143 -253 -99 callsubr
        </CharString>
        <CharString name="ecircumflex">
          119 callsubr
          42 350 callsubr
          269 650 -41 callsubr
          163 -254 -99 callsubr
        </CharString>
        <CharString name="edieresis">
          119 callsubr
          49 163 hstemhm
          67 322 callsubr
          -148 136 hintmask 11111100
          418 561 -48 callsubr
          hintmask 11101010
          203 -261 -99 callsubr
        </CharString>
        <CharString name="edotaccent">
          119 callsubr
          49 163 hstemhm
          197 165 -9 136 hintmask 11111000
          280 561 rmoveto
          -69 callgsubr
          145 callsubr
          hvcurveto
          hintmask 11100100
          73 -261 -99 callsubr
        </CharString>
        <CharString name="egrave">
          119 callsubr
          42 350 callsubr
          336 554 110 callgsubr
          138 -254 -99 callsubr
        </CharString>
        <CharString name="eight">
          -19 callsubr
        </CharString>
        <CharString name="ellipsis">
          331 -8 178 hstem
          60 178 142 178 142 178 cntrmask 01110000
          60 81 rmoveto
          140 callsubr
          320 hmoveto
          140 callsubr
          320 hmoveto
          140 callsubr
          endchar
        </CharString>
        <CharString name="emacron">
          119 callsubr
          81 99 hstem
          353 136 vstem
          448 692 340 callgsubr
          -95 -293 -99 callsubr
        </CharString>
        <CharString name="emdash">
          229 218 107 hstem
          45 746 vstem
          45 218 rmoveto
          746 107 -746 hlineto
          endchar
        </CharString>
        <CharString name="endash">
          -52 215 107 hstem
          45 465 vstem
          45 215 rmoveto
          465 107 -465 hlineto
          endchar
        </CharString>
        <CharString name="eng">
          -27 -198 112 107 294 callsubr
          hstem
          60 146 173 146 vstem
          408 callsubr
          88 43 38 50 49 31 -30 -62 vhcurveto
          -321 vlineto
          -49 -21 -18 -30 -17 -20 6 9 -20 vhcurveto
          -111 vlineto
          -12 33 23 -4 23 hhcurveto
          116 59 73 104 hvcurveto
          350 vlineto
          122 -65 61 -101 -75 -53 -36 -55 -25 vhcurveto
          endchar
        </CharString>
        <CharString name="eogonek">
          -74 -238 96 160 -21 199 104 101 111 hstemhm
          211 116 26 136 hintmask 11110100
          353 300 rmoveto
          -176 hlineto
          70 13 42 31 43 hhcurveto
          56 18 -40 -49 4 hvcurveto
          hintmask 11111100
          104 -424 rmoveto
          -16 -23 -28 -14 -36 hhcurveto
          -27 -16 12 22 44 59 49 57 36 hvcurveto
          6 2 5 3 4 3 rrcurveto
          122 vlineto
          -24 -32 -42 -19 -60 hhcurveto
          -68 -53 31 57 -20 hvcurveto
          hintmask 11110100
          298 hlineto
          3 21 5 36 22 vvcurveto
          162 -89 75 -131 -126 -108 -90 -168 vhcurveto
          hintmask 11111100
          -136 79 -107 149 -14 vhcurveto
          -30 -32 -22 -39 -47 vvcurveto
          -63 38 -54 99 46 34 10 15 29 vhcurveto
          endchar
        </CharString>
        <CharString name="equal">
          -18 166 120 108 120 480 callsubr
          45 394 rmoveto
          477 callgsubr
          -348 vmoveto
          477 callgsubr
          endchar
        </CharString>
        <CharString name="eth">
          -50 -10 130 159 123 168 104 0 -20 28 -20 hstemhm
          35 149 179 147 hintmask 11001110
          267 120 rmoveto
          -52 -31 31 43 53 29 32 53 41 31 -18 -26 25 hvcurveto
          -95 -11 -41 -20 -44 hhcurveto
          215 481 rmoveto
          81 vlineto
          hintmask 11010110
          -113 -55 -18 17 -19 16 -20 14 rlinecurve
          -184 hlineto
          hintmask 11100110
          49 -32 42 -34 35 -38 -97 -47 rcurveline
          -81 vlineto
          143 70 32 -49 21 -53 9 -59 rlinecurve
          31 -33 -46 20 -57 hhcurveto
          -112 -79 -79 -119 -113 81 -101 152 163 79 126 173 88 -32 106 -61 86 hvcurveto
          endchar
        </CharString>
        <CharString name="exclam">
          -318 -8 182 -161 -21 682 -20 hstemhm
          52 182 -159 139 hintmask 01101000
          75 236 rmoveto
          139 438 -139 hlineto
          hintmask 01110000
          -23 -591 rmoveto
          350 callgsubr
          vhcurveto
          hintmask 10110000
          51 -40 40 -51 vhcurveto
          hintmask 01110000
          -51 -40 -40 -51 hvcurveto
          endchar
        </CharString>
        <CharString name="exclamdown">
          -318 335 182 hstemhm
          52 182 -159 139 hintmask 11000000
          52 426 rmoveto
          350 callgsubr
          51 -40 40 -51 -51 -40 -40 -51 vhcurveto
          hintmask 10100000
          23 -591 rmoveto
          139 438 -139 hlineto
          endchar
        </CharString>
        <CharString name="f">
          -261 229 callgsubr
          vstem
          366 710 rmoveto
          9 -26 -24 1 -26 124 callsubr
          95 107 -95 19 298 callgsubr
        </CharString>
        <CharString name="ff">
          29 229 callgsubr
          145 145 vstem
          386 507 rmoveto
          -145 19 hlineto
          236 callsubr
          270 184 rmoveto
          9 -26 -24 1 -26 hhcurveto
          -50 -42 -12 -23 -32 hvcurveto
          16 -36 -70 19 -60 124 callsubr
          145 319 callsubr
          95 107 -95 19 298 callgsubr
        </CharString>
        <CharString name="ffi">
          363 371 callsubr
          145 145 146 hintmask 11011110
          386 507 rmoveto
          -145 hlineto
          hintmask 11101110
          19 vlineto
          236 callsubr
          436 -19 rmoveto
          -291 19 hlineto
          61 27 16 46 57 57 -20 -23 51 vhcurveto
          hintmask 11011110
          118 vlineto
          hintmask 11101110
          24 -52 -64 18 -73 hhcurveto
          -50 -42 -12 -23 -32 hvcurveto
          16 -36 -70 19 -60 124 callsubr
          145 319 callsubr
          145 -400 146 vlineto
          endchar
        </CharString>
        <CharString name="ffl">
          276 229 callgsubr
          145 145 146 146 vstem
          386 507 rmoveto
          -145 19 hlineto
          236 callsubr
          -290 -19 rmoveto
          -66 -107 66 319 callsubr
          145 195 callgsubr
          -50 -42 -12 -23 -32 hvcurveto
          16 -36 -70 19 -60 245 callgsubr
          endchar
        </CharString>
        <CharString name="fi">
          -32 371 callsubr
          146 hintmask 11011100
          532 507 rmoveto
          -291 hlineto
          hintmask 11101100
          19 vlineto
          61 27 16 46 57 57 -20 -23 51 vhcurveto
          hintmask 11011100
          118 vlineto
          hintmask 11101100
          24 -52 -64 18 -73 124 callsubr
          145 -400 146 vlineto
          endchar
        </CharString>
        <CharString name="five">
          -107 448 callsubr
          63 142 116 149 vstem
          205 84 callgsubr
        </CharString>
        <CharString name="fl">
          -14 229 callgsubr
          146 146 vstem
          96 507 rmoveto
          -66 -107 66 195 callgsubr
          -121 -73 -70 -124 hvcurveto
          endchar
        </CharString>
        <CharString name="florin">
          -85 -256 117 418 107 176 117 hstem
          -30 522 vstem
          190 386 rmoveto
          -104 -107 87 hlineto
          -48 -311 rlineto
          -67 -10 -19 -40 -54 hhcurveto
          -26 -24 5 11 -22 hvcurveto
          -118 vlineto
          -9 21 37 -6 38 hhcurveto
          121 64 91 123 19 hvcurveto
          50 321 rlineto
          112 107 -96 hlineto
          11 69 rlineto
          67 10 24 40 54 hhcurveto
          16 23 -4 -7 18 hvcurveto
          118 vlineto
          9 -26 -34 1 -26 hhcurveto
          -121 -64 -91 -123 -19 hvcurveto
          endchar
        </CharString>
        <CharString name="four">
          -45 488 callsubr
          317 145 vstem
          173 166 callsubr
        </CharString>
        <CharString name="foursuperior">
          -199 485 82 199 60 hstem
          224 96 vstem
          127 567 rmoveto
          97 199 rlineto
          -199 vlineto
          149 hmoveto
          -53 259 -153 hlineto
          -132 -259 rlineto
          -82 189 -92 96 92 53 vlineto
          endchar
        </CharString>
        <CharString name="fraction">
          -343 21 -21 hstem
          -177 537 vstem
          360 378 callgsubr
        </CharString>
        <CharString name="g">
          172 callgsubr
          386 callgsubr
          285 133 -83 callsubr
        </CharString>
        <CharString name="gbreve">
          172 callgsubr
          38 92 hstemhm
          40 152 -79 112 160 145 -133 112 hintmask 11110101
          397 731 -7 callgsubr
          hintmask 11111010
          -224 -598 -83 callsubr
        </CharString>
        <CharString name="gcircumflex">
          172 callgsubr
          42 177 386 callgsubr
          309 650 -41 callsubr
          55 -421 -83 callsubr
        </CharString>
        <CharString name="gdotaccent">
          172 callgsubr
          49 163 hstemhm
          40 152 46 165 -18 145 hintmask 11111100
          321 561 rmoveto
          -69 callgsubr
          145 callsubr
          hvcurveto
          hintmask 11111010
          -36 -428 -83 callsubr
        </CharString>
        <CharString name="germandbls">
          -9 -9 114 -84 -21 563 127 hstemhm
          60 142 95 150 -93 148 -60 136 hintmask 10110010
          280 15 rmoveto
          -18 27 54 -6 36 hhcurveto
          110 71 67 101 hvcurveto
          hintmask 01110100
          145 -131 25 37 39 55 25 89 vvcurveto
          89 -84 82 -135 -144 -79 -84 -145 vhcurveto
          -461 142 470 vlineto
          66 31 27 59 43 19 -23 -34 vhcurveto
          hintmask 10111000
          -52 -57 -32 -71 vvcurveto
          hintmask 10110010
          -104 145 -16 -74 vvcurveto
          -33 -26 -19 -35 -35 -26 7 26 -40 vhcurveto
          endchar
        </CharString>
        <CharString name="grave">
          396 callgsubr
          134 232 vstem
          280 798 144 callsubr
        </CharString>
        <CharString name="greater">
          -18 93 494 480 callsubr
          544 409 rmoveto
          -499 178 rlineto
          -144 vlineto
          354 -103 -354 -103 rlineto
          -144 vlineto
          499 178 rlineto
          endchar
        </CharString>
        <CharString name="greaterequal">
          -23 83 116 hstem
          441 103 vstem
          45 83 rmoveto
          499 116 -499 hlineto
          396 vmoveto
          -126 vlineto
          396 -50 -396 -50 rlineto
          -126 vlineto
          499 86 rlineto
          180 vlineto
          endchar
        </CharString>
        <CharString name="guillemotleft">
          -15 91 324 hstem
          26 524 vstem
          330 415 167 callsubr
          366 162 167 callsubr
          endchar
        </CharString>
        <CharString name="guillemotright">
          -16 91 324 hstem
          41 524 vstem
          193 415 168 callgsubr
          68 162 168 callgsubr
          endchar
        </CharString>
        <CharString name="guilsinglleft">
          -236 91 324 hstem
          26 304 vstem
          330 415 167 callsubr
          endchar
        </CharString>
        <CharString name="guilsinglright">
          -236 91 324 hstem
          41 304 vstem
          193 415 168 callgsubr
          endchar
        </CharString>
        <CharString name="h">
          292 callgsubr
          471 callsubr
          707 rmoveto
          -146 -707 70 callsubr
        </CharString>
        <CharString name="hbar">
          292 callgsubr
          52 82 471 callsubr
          564 rmoveto
          151 82 -151 61 -146 -61 -57 -82 57 -564 70 callsubr
        </CharString>
        <CharString name="hcircumflex">
          292 callgsubr
          242 177 hstem
          60 108 callsubr
          vstem
          214 754 rmoveto
          139 hlineto
          -156 177 rlineto
          -124 hlineto
          -156 -177 rlineto
          139 hlineto
          79 96 rlineto
          71 -143 rmoveto
          -146 -707 70 callsubr
        </CharString>
        <CharString name="hungarumlaut">
          396 callgsubr
          37 426 vstem
          224 621 42 callsubr
          endchar
        </CharString>
        <CharString name="hyphen">
          275 callgsubr
        </CharString>
        <CharString name="i">
          440 callgsubr
          569 170 hstemhm
          53 170 -158 146 hintmask 11010000
          141 callsubr
          hintmask 11100000
          -12 147 125 callgsubr
          endchar
        </CharString>
        <CharString name="iacute">
          440 callgsubr
          554 177 341 callgsubr
          141 callsubr
          20 47 -37 callsubr
          endchar
        </CharString>
        <CharString name="ibreve">
          440 callgsubr
          549 92 hstemhm
          -60 112 13 146 13 112 vstemhm
          -60 730 -8 callsubr
          hintmask 11010000
          13 -730 493 callsubr
        </CharString>
        <CharString name="icircumflex">
          440 callgsubr
          554 177 341 callgsubr
          77 731 -79 callgsubr
          -136 -731 493 callsubr
        </CharString>
        <CharString name="idieresis">
          440 callgsubr
          561 163 hstemhm
          -78 165 -22 146 -21 166 hintmask 11010000
          141 callsubr
          hintmask 11101000
          -143 136 -29 callsubr
          endchar
        </CharString>
        <CharString name="igrave">
          440 callgsubr
          554 177 341 callgsubr
          141 callsubr
          38 224 144 callsubr
        </CharString>
        <CharString name="ij">
          -73 -198 112 107 -21 569 170 hstemhm
          53 170 -158 146 105 170 -157 145 hintmask 11101010
          141 callsubr
          hintmask 11110010
          -12 147 125 callgsubr
          167 -836 28 callsubr
          hintmask 11101100
          96 725 125 callgsubr
          endchar
        </CharString>
        <CharString name="imacron">
          440 callgsubr
          593 99 341 callgsubr
          141 callsubr
          251 86 316 callgsubr
          endchar
        </CharString>
        <CharString name="infinity">
          223 165 111 -108 112 123 112 -108 111 hstemhm
          45 127 485 128 hintmask 10101100
          172 339 rmoveto
          40 25 24 43 38 33 -31 -28 28 vhcurveto
          -26 -18 -31 -42 -50 hhcurveto
          -42 -26 23 40 hvcurveto
          243 -80 rmoveto
          hintmask 01011100
          -50 43 54 -41 84 hhcurveto
          113 76 72 106 108 -67 64 -118 -95 -57 -54 -39 -34 hvcurveto
          hintmask 10101100
          50 -45 -52 40 -82 hhcurveto
          -115 -75 -70 -108 -110 65 -62 121 99 50 55 39 35 hvcurveto
          hintmask 01011100
          242 85 rmoveto
          -44 -25 -20 -42 -38 -32 31 28 -29 vhcurveto
          26 19 29 42 54 hhcurveto
          41 23 -28 -35 hvcurveto
          endchar
        </CharString>
        <CharString name="iogonek">
          -331 -260 96 185 -21 569 170 hstemhm
          -23 116 -40 170 -158 146 hintmask 11101000
          138 569 rmoveto
          47 38 38 47 47 -38 38 -47 -47 -38 -38 -47 -47 38 -38 47 hvcurveto
          hintmask 11100100
          73 -62 rmoveto
          -146 -500 hlineto
          hintmask 11110000
          -46 -36 -42 -50 -64 -12 callsubr
          hvcurveto
          hintmask 11100100
          368 callsubr
          vhcurveto
          endchar
        </CharString>
        <CharString name="itfLogo">
          1127 21 -21 237 196 42 196 hstem
          147 207 43 207 43 207 42 208 42 208 42 207 vstem
          147 hmoveto
          207 671 -207 430 callsubr
          250 -671 rmoveto
          207 671 -207 hlineto
          249 -196 rmoveto
          208 196 -208 hlineto
          250 -671 rmoveto
          208 671 -208 430 callsubr
          -434 vmoveto
          207 196 -207 hlineto
          endchar
        </CharString>
        <CharString name="itfStar">
          30 58 669 hstem
          -17 704 vstem
          687 472 rmoveto
          -30 -214 -6 -3 -36 hvcurveto
          -71 264 -9 -29 -56 -201 -9 -34 rlinecurve
          -279 9 27 -16 179 -116 30 -18 rlinecurve
          -102 -264 25 21 163 137 31 22 rlinecurve
          218 -180 -11 30 -76 202 -13 32 rlinecurve
          endchar
        </CharString>
        <CharString name="itilde">
          440 callgsubr
          573 103 -68 103 -35 -20 hstemhm
          65 146 hintmask 11001000
          141 callsubr
          196 212 154 callsubr
          hintmask 10101000
          -38 callgsubr
          hintmask 11001000
          36 24 -35 60 hhcurveto
          hintmask 10011000
          63 47 33 52 26 hvcurveto
          endchar
        </CharString>
        <CharString name="j">
          -333 -198 112 655 170 hstemhm
          56 170 -157 145 hintmask 11010000
          -40 -182 28 callsubr
          hintmask 11100000
          96 725 125 callgsubr
          endchar
        </CharString>
        <CharString name="jcircumflex">
          -333 -198 112 639 177 hstem
          69 145 vstem
          80 730 -79 callgsubr
          -244 -912 28 callsubr
          endchar
        </CharString>
        <CharString name="k">
          -59 21 -21 hstem
          60 146 vstem
          537 hmoveto
          218 callsubr
          410 -146 -690 146 249 vlineto
          162 -249 rlineto
          endchar
        </CharString>
        <CharString name="kgreenlandic">
          -59 21 -21 hstem
          60 146 vstem
          537 hmoveto
          218 callsubr
          227 -146 -507 146 249 vlineto
          162 -249 rlineto
          endchar
        </CharString>
        <CharString name="l">
          440 callgsubr
          270 callgsubr
          endchar
        </CharString>
        <CharString name="lacute">
          440 callgsubr
          754 177 341 callgsubr
          75 754 -37 callsubr
          -96 -931 rmoveto
          146 707 -146 hlineto
          endchar
        </CharString>
        <CharString name="lcaron">
          440 callgsubr
          498 211 270 callgsubr
          204 -209 432 callgsubr
        </CharString>
        <CharString name="ldot">
          -106 21 -21 289 163 hstem
          60 146 100 165 vstem
          60 hmoveto
          146 707 -146 hlineto
          246 -336 rmoveto
          145 callsubr
          -69 callgsubr
          vhcurveto
          endchar
        </CharString>
        <CharString name="less">
          -18 93 494 480 callsubr
          45 271 rmoveto
          499 -178 rlineto
          144 vlineto
          -354 103 354 103 rlineto
          144 vlineto
          -499 -178 rlineto
          endchar
        </CharString>
        <CharString name="lessequal">
          -23 83 116 hstem
          40 103 vstem
          40 83 rmoveto
          499 116 -499 hlineto
          499 396 rmoveto
          -499 -86 rlineto
          -180 vlineto
          499 -86 rlineto
          126 vlineto
          -396 50 396 50 rlineto
          endchar
        </CharString>
        <CharString name="logicalnot">
          -4 301 116 hstem
          438 120 vstem
          558 136 rmoveto
          281 -513 -116 393 -165 vlineto
          endchar
        </CharString>
        <CharString name="longs">
          -302 21 -21 653 117 hstem
          65 145 vstem
          335 760 rmoveto
          9 -26 -24 1 -26 245 callgsubr
          -576 145 576 298 callgsubr
        </CharString>
        <CharString name="lozenge">
          -3 21 -21 561 113 0 -20 hstemhm
          29 546 hintmask 10110000
          404 295 rmoveto
          -75 -121 -27 -61 0 vvcurveto
          0 -28 61 -72 121 vhcurveto
          -25 42 25 42 rlineto
          hintmask 11010000
          72 121 28 61 0 vvcurveto
          0 27 -61 75 -121 vhcurveto
          26 -42 rlineto
          -54 337 rmoveto
          -150 hlineto
          -197 -337 197 -337 rlineto
          150 hlineto
          199 337 rlineto
          endchar
        </CharString>
        <CharString name="lslash">
          -266 21 -21 hstem
          102 146 vstem
          331 540 rmoveto
          -83 -57 rlineto
          224 -146 -323 vlineto
          -77 -53 rlineto
          -121 vlineto
          77 53 rlineto
          -263 146 362 vlineto
          83 57 rlineto
          endchar
        </CharString>
        <CharString name="m">
          252 318 callgsubr
          hstem
          60 146 153 146 153 146 cntrmask 00111000
          408 callsubr
          429 callsubr
          268 vlineto
          429 callsubr
          325 vlineto
          125 -64 62 -98 -72 -56 -37 -59 -23 vhcurveto
          63 -23 -51 33 -68 hhcurveto
          -66 -51 -32 -52 -26 hvcurveto
          endchar
        </CharString>
        <CharString name="macron">
          303 callsubr
        </CharString>
        <CharString name="minus">
          -18 275 129 480 callsubr
          45 275 rmoveto
          499 129 -499 hlineto
          endchar
        </CharString>
        <CharString name="multiply">
          -77 117 444 hstem
          42 445 vstem
          487 209 rmoveto
          -130 129 128 128 -95 94 -127 -127 -129 128 -92 -92 129 -128 -128 -128 95 -94 127 127 130 -129 rlineto
          endchar
        </CharString>
        <CharString name="n">
          292 callgsubr
          hstem
          60 146 173 146 vstem
          206 507 -29 callgsubr
        </CharString>
        <CharString name="nacute">
          292 callgsubr
          42 177 hstem
          60 108 callsubr
          vstem
          490 731 51 callgsubr
          -173 -47 -29 callgsubr
        </CharString>
        <CharString name="napostrophe">
          61 318 callgsubr
          -28 23 hstemhm
          148 108 callsubr
          hintmask 10111000
          61 694 rmoveto
          -82 -210 rlineto
          102 hlineto
          109 210 rlineto
          104 -187 114 callgsubr
          hintmask 11011000
          88 43 38 50 49 31 -30 -62 vhcurveto
          -302 146 329 vlineto
          122 -65 61 -101 -75 -53 -36 -55 -25 vhcurveto
          endchar
        </CharString>
        <CharString name="ncaron">
          292 callgsubr
          42 177 hstem
          60 108 callsubr
          vstem
          361 554 -79 callsubr
          -31 -47 -29 callgsubr
        </CharString>
        <CharString name="nine">
          -74 470 callsubr
          20 149 182 147 vstem
          254 39 callsubr
        </CharString>
        <CharString name="notequal">
          -18 166 116 116 116 480 callsubr
          544 398 rmoveto
          116 -130 vlineto
          37 80 rlineto
          -75 hlineto
          -37 -80 rlineto
          -294 -116 239 hlineto
          -54 -116 rlineto
          -185 -116 130 hlineto
          -37 -80 rlineto
          75 hlineto
          37 80 rlineto
          294 116 -239 hlineto
          54 116 rlineto
          endchar
        </CharString>
        <CharString name="ntilde">
          292 callgsubr
          62 103 -68 103 -35 -20 hstemhm
          60 108 callsubr
          hintmask 11100110
          416 720 154 callsubr
          hintmask 11010110
          -38 callgsubr
          hintmask 11100110
          36 24 -35 60 hhcurveto
          hintmask 11001110
          63 47 33 52 26 hvcurveto
          -284 -152 -29 callgsubr
        </CharString>
        <CharString name="numbersign">
          150 21 -21 154 111 135 116 157 -20 hstem
          45 667 vstem
          429 265 rmoveto
          -137 hlineto
          29 135 rlineto
          136 hlineto
          255 hmoveto
          116 -106 vlineto
          468 callsubr
          -136 hlineto
          468 callsubr
          -143 -116 118 hlineto
          -28 -135 rlineto
          -124 -111 100 443 callsubr
          136 443 callsubr
          149 111 -126 hlineto
          29 135 rlineto
          endchar
        </CharString>
        <CharString name="o">
          151 callgsubr
          hstem
          35 152 193 152 vstem
          105 callsubr
          endchar
        </CharString>
        <CharString name="oacute">
          182 callsubr
          235 553 -37 callsubr
          -37 -738 -81 callsubr
          endchar
        </CharString>
        <CharString name="obreve">
          151 callgsubr
          35 92 404 callgsubr
          -97 358 callgsubr
          -106 152 hintmask 11101100
          90 731 -8 callsubr
          hintmask 11110010
          81 -331 rmoveto
          73 24 -68 -81 -81 -27 -65 -68 -68 -30 67 81 81 29 66 67 hvcurveto
          1 -408 rmoveto
          161 87 116 148 144 -84 115 -164 -154 -95 -115 -153 -142 84 -113 165 hvcurveto
          endchar
        </CharString>
        <CharString name="ocircumflex">
          182 callsubr
          283 400 rmoveto
          73 24 -68 -81 -81 -27 -65 -68 -68 -30 67 81 81 29 66 67 hvcurveto
          1 -408 rmoveto
          161 87 116 148 144 -84 115 -164 -154 -95 -115 -153 -142 84 -113 165 hvcurveto
          -59 738 -79 callgsubr
          endchar
        </CharString>
        <CharString name="odieresis">
          151 callgsubr
          47 163 404 callgsubr
          -109 322 callsubr
          -132 152 hintmask 11101100
          78 644 -29 callsubr
          hintmask 11110010
          -62 -652 -81 callsubr
          endchar
        </CharString>
        <CharString name="oe">
          272 -8 113 -110 113 88 104 100 115 -114 111 404 callgsubr
          517.5 136.5 hintmask 10101110
          529 300 rmoveto
          70 13 42 31 43 hhcurveto
          52 20 -35 -45 5 hvcurveto
          -7 1 -7 -7 vvcurveto
          -420 -195 rmoveto
          -68 -30 67 81 hvcurveto
          hintmask 10110110
          81 29 66 67 73 31 -68 -81 vhcurveto
          hintmask 10101110
          -81 -34 -65 -68 vhcurveto
          hintmask 01101110
          525 46 rmoveto
          -24 -32 -42 -19 -60 hhcurveto
          -68 -53 31 57 -20 hvcurveto
          298 hlineto
          3 21 5 36 22 vvcurveto
          162 -89 75 -131 -58 -60 -24 -45 -45 vhcurveto
          hintmask 10110110
          45 -41 -59 27 -74 hhcurveto
          -154 -95 -115 -153 -142 84 -113 165 74 60 29 48 42 hvcurveto
          hintmask 01101110
          -46 46 66 -28 79 hhcurveto
          51 71 10 24 37 hvcurveto
          endchar
        </CharString>
        <CharString name="ogonek">
          -107 -246 96 hstem
          127 116 vstem
          373 -221 rmoveto
          101 vlineto
          -16 -23 -28 -14 -36 hhcurveto
          -27 -16 12 22 368 callsubr
          hvcurveto
          -49 64 rlineto
          -58 -25 -127 -70 -112 vvcurveto
          -63 38 -54 99 46 34 10 15 29 vhcurveto
          endchar
        </CharString>
        <CharString name="ograve">
          182 callsubr
          105 callsubr
          -15 330 144 callsubr
        </CharString>
        <CharString name="ohungarumlaut">
          151 callgsubr
          39 177 hstem
          35 152 193 152 vstem
          338 554 42 callsubr
          47 -739 -81 callsubr
          endchar
        </CharString>
        <CharString name="omacron">
          151 callgsubr
          78 99 hstem
          35 152 193 152 vstem
          462 593 316 callgsubr
          178 -601 -81 callsubr
          endchar
        </CharString>
        <CharString name="one">
          -227 21 -21 hstem
          175 145 vstem
          10 297 callsubr
        </CharString>
        <CharString name="onesuperior">
          -328 392 433 hstem
          126 103 vstem
          10 651 rmoveto
          116 62 rlineto
          -321 103 433 -85 vlineto
          -134 -76 rlineto
          endchar
        </CharString>
        <CharString name="ordfeminine">
          -207 392 84 92 77 82 101 hstem
          10 128 106 126 vstem
          244 568 rmoveto
          -32 vlineto
          -36 -21 -24 -34 -35 -16 16 27 28 23 21 42 vhcurveto
          -161 121 rmoveto
          21 33 47 17 49 hhcurveto
          55 18 -21 -33 hvcurveto
          -28 -55 vlineto
          -122 -57 -53 -78 -70 46 -55 86 63 32 27 28 13 hvcurveto
          -52 120 276 vlineto
          110 -59 50 -122 -66 -55 -14 -14 -26 vhcurveto
          endchar
        </CharString>
        <CharString name="ordmasculine">
          -165 386 96 251 97 hstem
          10 129 164 129 vstem
          222 386 rmoveto
          136 74 98 126 123 -71 97 -139 -132 -80 -97 -131 -120 71 -96 141 hvcurveto
          -2 347 rmoveto
          63 20 -58 -70 -68 -23 -55 -57 -59 -25 56 69 70 24 56 57 hvcurveto
          endchar
        </CharString>
        <CharString name="oslash">
          -45 -8 97 327 99 hstem
          35 134 229 134 vstem
          391 319 rmoveto
          5 -21 2 -23 -24 vvcurveto
          -90 -33 -72 -80 -19 -17 4 8 -14 vhcurveto
          -59 88 rmoveto
          -5 20 -2 21 23 vvcurveto
          90 35 73 79 19 16 -4 -6 14 vhcurveto
          200 109 rmoveto
          -122 hlineto
          -15 -21 rlineto
          13 -32 -37 8 -42 hhcurveto
          -154 -95 -115 -153 -68 19 -61 38 -46 hvcurveto
          -57 -80 rlineto
          121 hlineto
          16 22 rlineto
          -14 31 38 -8 43 hhcurveto
          161 87 116 148 69 -19 63 -39 46 hvcurveto
          endchar
        </CharString>
        <CharString name="otilde">
          151 callgsubr
          59 103 -68 103 -35 -20 404 callgsubr
          193 152 hintmask 11100110
          105 callsubr
          128 320 154 callsubr
          hintmask 11010110
          -38 callgsubr
          hintmask 11100110
          36 24 -35 60 hhcurveto
          hintmask 11001110
          63 47 33 52 26 hvcurveto
          endchar
        </CharString>
        <CharString name="p">
          160 callsubr
          391 rmoveto
          -146 -694 212 callsubr
        </CharString>
        <CharString name="paragraph">
          -15 674 -20 hstem
          213 111 92.5 110.5 vstem
          324 674 rmoveto
          -92 hlineto
          -163 -59 -90 -87 -92 66 -88 137 hvcurveto
          -465 111 vlineto
          92 hmoveto
          111 822 -110 hlineto
          endchar
        </CharString>
        <CharString name="parenleft">
          -269 -196 903 hstem
          40 154 vstem
          358 -196 rmoveto
          -113 138 -51 183 130 vvcurveto
          135 52 192 102 125 vhcurveto
          -151 hlineto
          -100 -120 -57 -148 -180 vvcurveto
          -176 56 -146 107 -133 vhcurveto
          endchar
        </CharString>
        <CharString name="parenright">
          -269 -196 903 hstem
          144 154 vstem
          141 707 rmoveto
          -151 hlineto
          102 -125 52 -192 -135 vvcurveto
          -130 -51 -183 -113 -138 vhcurveto
          155 hlineto
          107 133 56 146 176 vvcurveto
          180 -57 148 -100 120 vhcurveto
          endchar
        </CharString>
        <CharString name="partialdiff">
          -55 -10 130 189 124 241 -20 hstem
          35 149 185 133 vstem
          267 120 rmoveto
          -54 -29 37 56 58 37 38 50 42 31 -12 -23 25 hvcurveto
          -121 -4 -49 -33 -49 hhcurveto
          -166 554 rmoveto
          108 -67 98 -94 41 -111 rrcurveto
          19 -28 -36 12 -45 hhcurveto
          -110 -94 -84 -129 -131 79 -99 154 146 88 106 188 129 -75 165 -125 96 hvcurveto
          endchar
        </CharString>
        <CharString name="percent">
          366 211 callsubr
          hintmask 0110111110000000
          330 callgsubr
          hintmask 1010111110000000
          -105 85 -85 105 105 85 85 105 105 -85 85 -105 vhcurveto
          hintmask 0110111110000000
          -105 -85 -85 -105 hvcurveto
          hintmask 1001111110000000
          -503 350 rmoveto
          6 callgsubr
          hintmask 1010111110000000
          503 -350 rmoveto
          40 33 33 40 40 33 -33 -40 -40 -33 -33 -40 -40 -33 33 40 vhcurveto
          endchar
        </CharString>
        <CharString name="period">
          -349 -8 178 -157 -21 hstemhm
          40 178 hintmask 01100000
          40 81 rmoveto
          -49 40 -40 49 49 40 40 49 vhcurveto
          hintmask 10100000
          49 -40 40 -49 vhcurveto
          hintmask 01100000
          -49 -40 -40 -49 hvcurveto
          endchar
        </CharString>
        <CharString name="periodcentered">
          -339 163 178 hstem
          45 178 vstem
          45 252 rmoveto
          140 callsubr
          endchar
        </CharString>
        <CharString name="perthousand">
          805 211 callsubr
          60 321 callgsubr
          hintmask 0110000100000000
          330 callgsubr
          hintmask 1010000110000000
          -105 85 -85 105 105 85 85 105 105 -85 85 -105 vhcurveto
          hintmask 0110000100000000
          -105 -85 -85 -105 hvcurveto
          hintmask 0001111000000000
          -503 350 rmoveto
          6 callgsubr
          hintmask 1010000111100000
          503 -350 rmoveto
          40 33 33 40 40 33 -33 -40 -40 -33 -33 -40 -40 -33 33 40 vhcurveto
          323 hmoveto
          6 callgsubr
          endchar
        </CharString>
        <CharString name="pi">
          -1 0 119 281 107 hstem
          100 146 124 146 vstem
          596 507 rmoveto
          -576 -107 80 -199 hlineto
          -68 -18 -14 -43 vhcurveto
          -119 vlineto
          143 64 51 165 hvcurveto
          184 124 -400 146 400 80 vlineto
          endchar
        </CharString>
        <CharString name="plus">
          -18 274 130 hstem
          227 134 vstem
          544 404 rmoveto
          -183 181 -134 -181 -182 -130 182 -180 134 180 183 hlineto
          endchar
        </CharString>
        <CharString name="plusminus">
          -18 28 120 178 120 hstem
          227 134 vstem
          45 28 rmoveto
          477 callgsubr
          316 298 rmoveto
          139 -134 -139 -182 -120 182 -140 134 140 183 120 vlineto
          endchar
        </CharString>
        <CharString name="product">
          40 -186 133 596 131 hstem
          86 154 187 155 vstem
          582 674 rmoveto
          -496 -632 hlineto
          -65 -13 -30 -41 -20 -12 5 8 -15 vhcurveto
          -133 vlineto
          -6 17 32 -7 24 hhcurveto
          136 46 98 131 hvcurveto
          500 187 -723 155 vlineto
          endchar
        </CharString>
        <CharString name="q">
          4 -6 122 276 121 hstem
          474 callsubr
          vstem
          86 callgsubr
          112 391 rmoveto
          -78 vlineto
          57 -35 -56 27 -60 hhcurveto
          -130 -89 -98 -160 -144 77 -117 141 59 57 25 60 36 hvcurveto
          -266 146 694 vlineto
          endchar
        </CharString>
        <CharString name="question">
          -149 -8 182 -161 -21 244 151 173 122 hstemhm
          103 182 -157.5 136 16.5 148 hintmask 01111000
          65 517 rmoveto
          hintmask 01110010
          27 41 44 16 45 hhcurveto
          58 27 -33 -46 -60 -42 -34 -112 hvcurveto
          hintmask 01110100
          3 -151 rlineto
          133 hlineto
          3 82 rlineto
          hintmask 01110010
          50 1 113 52 128 vvcurveto
          114 -87 69 -123 -62 -50 -9 -19 -41 vhcurveto
          hintmask 01111000
          38 -571 rmoveto
          350 callgsubr
          vhcurveto
          hintmask 10111000
          51 -40 40 -51 vhcurveto
          hintmask 01111000
          -51 -40 -40 -51 hvcurveto
          endchar
        </CharString>
        <CharString name="questiondown">
          -149 -172 122 173 151 62 182 hstemhm
          65 148 -5 182 -160.5 136 hintmask 11101000
          428 -7 rmoveto
          hintmask 11110000
          -27 -41 -44 -16 -45 hhcurveto
          -58 -27 33 46 60 42 34 112 hvcurveto
          hintmask 11100100
          -3 151 rlineto
          -133 hlineto
          -3 -82 rlineto
          hintmask 11110000
          -50 -1 -113 -52 -128 vvcurveto
          -114 87 -69 123 62 50 9 19 41 vhcurveto
          hintmask 11101000
          -38 571 rmoveto
          51 -40 40 -51 -51 -40 -40 -51 350 callgsubr
          vhcurveto
          endchar
        </CharString>
        <CharString name="quotedbl">
          -220 420 261 hstem
          40 122 63 122 vstem
          40 420 434 callsubr
          185 -261 434 callsubr
          endchar
        </CharString>
        <CharString name="quotedblbase">
          -155 -127 261 hstem
          -2 447 vstem
          183 -127 227 callsubr
        </CharString>
        <CharString name="quotedblleft">
          -155 481 callgsubr
          27 447 vstem
          289 694 rmoveto
          -121 hlineto
          -141 -261 rlineto
          158 hlineto
          289 261 rmoveto
          -121 hlineto
          -121 -261 rlineto
          146 hlineto
          endchar
        </CharString>
        <CharString name="quotedblright">
          -155 481 callgsubr
          28 447 vstem
          213 433 227 callsubr
        </CharString>
        <CharString name="quoteleft">
          -340 481 callgsubr
          27 262 vstem
          289 694 rmoveto
          -126 hlineto
          -136 -261 rlineto
          161 hlineto
          endchar
        </CharString>
        <CharString name="quoteright">
          -340 481 callgsubr
          28 262 vstem
          28 433 145 callgsubr
        </CharString>
        <CharString name="quotesinglbase">
          -340 -127 261 hstem
          -7 262 vstem
          -7 -127 145 callgsubr
        </CharString>
        <CharString name="quotesingle">
          -405 420 261 hstem
          40 122 vstem
          40 420 434 callsubr
          endchar
        </CharString>
        <CharString name="r">
          -237 21 -21 379 131 441 callgsubr
          205 507 2 callsubr
        </CharString>
        <CharString name="racute">
          281 callsubr
          391 731 51 callgsubr
          -75 -47 2 callsubr
        </CharString>
        <CharString name="radical">
          218 348 113 hstem
          27 844 vstem
          283 461 rmoveto
          -226 hlineto
          -30 -113 rlineto
          131 hlineto
          194 -538 -56 callsubr
          349 1097 rlineto
          -154 hlineto
          -213 -692 -49 -158 -15 -102 -1 -5 rlinecurve
          -2 10 -21 103 -51 152 rrcurveto
          endchar
        </CharString>
        <CharString name="rcaron">
          281 callsubr
          274 554 -79 callsubr
          55 -47 2 callsubr
        </CharString>
        <CharString name="registered">
          -115 317 59 150 45 61 45 51 58 hstem
          10 62 102 54 50 57 86 61 vstem
          228 632 rmoveto
          18 hlineto
          21 11 -8 -22 -16 -9 -15 -19 hvcurveto
          -22 hlineto
          -54 106 rmoveto
          -237 54 86 13 vlineto
          50 -86 rlineto
          66 hlineto
          -60 96 rlineto
          25 12 13 23 31 vvcurveto
          46 -27 29 -64 vhcurveto
          3 -301 rmoveto
          -107 -68 70 105 105 68 72 107 106 68 -72 -105 -105 -68 -70 -106 hvcurveto
          -1 410 rmoveto
          -137 -99 -98 -137 -137 99 -97 137 136 100 97 137 137 -100 98 -136 hvcurveto
          endchar
        </CharString>
        <CharString name="ring">
          -107 574 83 112 77 hstem
          114 83 106 83 vstem
          114 710 178 callsubr
          endchar
        </CharString>
        <CharString name="s">
          314 callsubr
          hstem
          53 149 54 150 vstem
          380 492 58 callsubr
        </CharString>
        <CharString name="sacute">
          314 callsubr
          41 177 hstem
          53 149 54 150 vstem
          181 554 -37 callsubr
          113 -239 58 callsubr
        </CharString>
        <CharString name="scaron">
          314 callsubr
          40 177 hstem
          53 149 54 150 vstem
          380 492 rmoveto
          14 -35 -48 7 -47 hhcurveto
          -82 callgsubr
          -79 186 -79 callsubr
          endchar
        </CharString>
        <CharString name="scircumflex">
          314 callsubr
          41 177 hstem
          53 149 54 150 vstem
          380 492 rmoveto
          14 -35 -48 7 -47 hhcurveto
          -82 callgsubr
          -202 364 -79 callgsubr
          endchar
        </CharString>
        <CharString name="section">
          -8 -187 131 605 131 hstemhm
          57 148 -132 161 128 158 -137 148 hintmask 11010100
          228 322 rmoveto
          96 -50 59 -15 -57 vvcurveto
          -10 -2 -10 -6 -12 vhcurveto
          -17 9 -18 8 -16 7 rrcurveto
          hintmask 11100100
          -86 37 -33 23 39 vvcurveto
          9 3 14 8 14 vhcurveto
          263 317 rmoveto
          25 -54 -64 10 -56 hhcurveto
          hintmask 11010100
          -148 -84 -74 -107 -36 11 -28 19 -24 hvcurveto
          hintmask 11101000
          -27 -32 -19 -40 -45 vvcurveto
          -87 42 -61 79 -35 vhcurveto
          167 -73 17 -12 -34 vvcurveto
          -31 -29 -17 -53 -63 -65 18 48 -66 vhcurveto
          -155 vlineto
          -28 50 74 -14 70 hhcurveto
          148 92 68 111 36 -12 29 -19 25 hvcurveto
          hintmask 11010100
          25 30 17 44 41 vvcurveto
          102 -55 46 -81 43 vhcurveto
          -113 60 -48 14 38 vvcurveto
          27 22 22 55 57 61 -19 -29 50 vhcurveto
          endchar
        </CharString>
        <CharString name="semicolon">
          -313 -127 261 197 176 hstem
          73 176 vstem
          73 419 rmoveto
          218 callgsubr
          -80 -546 145 callgsubr
        </CharString>
        <CharString name="seven">
          -127 21 -21 531 124 hstem
          20 440 vstem
          20 264 callsubr
        </CharString>
        <CharString name="six">
          -70 453 callgsubr
          35 151 177 149 vstem
          280 32 callgsubr
        </CharString>
        <CharString name="slash">
          -143 -103 810 hstem
          -2 511 vstem
          -2 -103 rmoveto
          151 hlineto
          360 810 rlineto
          -152 hlineto
          endchar
        </CharString>
        <CharString name="space">
          -357 endchar
        </CharString>
        <CharString name="sterling">
          -67 0 123 144 106 150 137 hstemhm
          101 162 -145 158 hintmask 11001000
          215 123 rmoveto
          49 31 12 46 50 6 0 5 6 vvcurveto
          155 106 hlineto
          hintmask 11110000
          -166 hlineto
          -1 14 -1 14 13 vvcurveto
          76 35 33 70 37 39 -13 -20 28 vhcurveto
          138 vlineto
          19 -31 -47 13 -59 hhcurveto
          -159 -75 -93 -147 -15 1 -16 2 -16 hvcurveto
          hintmask 11001000
          -60 -106 74 hlineto
          -5 0 -6 -5 vvcurveto
          -52 -15 -48 -58 -30 vhcurveto
          -121 462 123 vlineto
          endchar
        </CharString>
        <CharString name="summation">
          -123 -200 124 626 124 hstem
          30 464 vstem
          494 674 rmoveto
          -464 -124 hlineto
          146 -306 -146 -320 rlineto
          -124 464 124 -303 vlineto
          143 320 -142 306 rlineto
          302 hlineto
          endchar
        </CharString>
        <CharString name="t">
          -221 -5 485 callgsubr
          229 400 -13 callsubr
          endchar
        </CharString>
        <CharString name="tbar">
          -181 -5 117 108 102 83 102 hstem
          103 146 vstem
          249 220 rmoveto
          118 102 -118 83 118 102 -118 120 -146 -120 -73 -102 73 -83 -73 -102 73 -52 hlineto
          -112 57 -61 116 28 44 4 12 28 402 callsubr
          -14 -22 -26 -6 -23 hhcurveto
          -31 -25 17 38 hvcurveto
          endchar
        </CharString>
        <CharString name="tcaron">
          -221 -5 117 288 107 81 39 hstem
          83 146 vstem
          229 400 -13 callsubr
          122 632 rmoveto
          -71 -211 rlineto
          106 hlineto
          116 211 rlineto
          endchar
        </CharString>
        <CharString name="thorn">
          160 callsubr
          591 rmoveto
          -146 -894 212 callsubr
        </CharString>
        <CharString name="three">
          -124 452 callgsubr
          285 150 -136 149 hintmask 11110000
          56 35 callsubr
        </CharString>
        <CharString name="threesuperior">
          -254 388 91 86 89 82 93 hstemhm
          200 111 -102 109 hintmask 11101000
          109 654 rmoveto
          -89 15 vlineto
          69 16 -19 -22 -25 -22 -20 -39 -42 -37 12 18 -34 hvcurveto
          -94 vlineto
          -18 33 57 -9 40 hhcurveto
          95 58 50 72 62 -41 33 -47 5 hvcurveto
          hintmask 11110000
          50 10 31 35 53 vvcurveto
          70 -57 51 -96 -38 -38 -9 -18 -31 vhcurveto
          -101 vlineto
          22 29 38 13 30 hhcurveto
          31 21 -13 -28 -29 -32 -12 -45 hvcurveto
          endchar
        </CharString>
        <CharString name="tilde">
          -107 621 103 -68 103 -82 -20 hstemhm
          52 396 hintmask 10010000
          374 767 154 callsubr
          hintmask 01010000
          -44 -25 35 -67 hhcurveto
          hintmask 00110000
          -52 -44 -40 -42 -20 hvcurveto
          hintmask 01010000
          65 -64 rlineto
          32 27 13 11 35 hhcurveto
          hintmask 10010000
          149 callsubr
          endchar
        </CharString>
        <CharString name="trademark">
          146 592 82 hstem
          94 94 vstem
          305 331 rmoveto
          91 hlineto
          9 111 rlineto
          6 68 -9 60 0 vvcurveto
          0 12 -62 24 -66 vhcurveto
          39 -107 rlineto
          78 hlineto
          40 107 rlineto
          28 72 10 56 0 vvcurveto
          0 -6 -56 6 -71 vhcurveto
          10 -112 rlineto
          91 hlineto
          -35 343 rlineto
          -99 hlineto
          -36 -93 rlineto
          -40 -106 -9 -33 0 vvcurveto
          0 -5 34 -41 105 vhcurveto
          -36 93 rlineto
          -99 hlineto
          -324 -82 rmoveto
          84 -261 94 261 83 82 -261 hlineto
          endchar
        </CharString>
        <CharString name="two">
          -106 0 124 403 136 hstem
          303 151 vstem
          234 102 callsubr
        </CharString>
        <CharString name="twosuperior">
          -242 392 90 246 101 hstemhm
          35 295 -125 111 hintmask 10100000
          35 392 rmoveto
          295 90 -162 hlineto
          hintmask 11010000
          84 54 64 69 87 vvcurveto
          87 -64 50 -90 -44 -43 -14 -19 -30 vhcurveto
          -105 vlineto
          22 31 39 15 29 hhcurveto
          41 20 -20 -31 hvcurveto
          hintmask 10100000
          -64 -86 -83 -84 -61 vhcurveto
          endchar
        </CharString>
        <CharString name="u">
          129 callgsubr
          hstemhm
          55 108 callsubr
          hintmask 10110000
          374 507 rmoveto
          -268 vlineto
          -70 callgsubr
          hintmask 01110000
          188 callgsubr
        </CharString>
        <CharString name="uacute">
          129 callgsubr
          441 177 hstemhm
          55 108 callsubr
          hintmask 10111000
          470 730 51 callgsubr
          15 -46 rmoveto
          -268 vlineto
          -70 callgsubr
          hintmask 01111000
          188 callgsubr
        </CharString>
        <CharString name="ubreve">
          129 callgsubr
          438 92 hstemhm
          55 146 -107 112 168 146 -142 112 hintmask 10101010
          378 731 -7 callgsubr
          hintmask 10110100
          -116 -224 rmoveto
          -268 vlineto
          -70 callgsubr
          hintmask 01110100
          188 callgsubr
        </CharString>
        <CharString name="ucircumflex">
          129 callgsubr
          442 177 hstemhm
          55 108 callsubr
          hintmask 10111000
          288 650 -41 callsubr
          165 -47 rmoveto
          -268 vlineto
          -70 callgsubr
          hintmask 01111000
          188 callgsubr
        </CharString>
        <CharString name="udieresis">
          129 callgsubr
          449 163 hstemhm
          55 146 -131 322 callsubr
          -130 146 hintmask 10101100
          421 561 -48 callsubr
          hintmask 10110010
          221 -54 rmoveto
          -268 vlineto
          -70 callgsubr
          hintmask 01110010
          188 callgsubr
        </CharString>
</ttFont>
